<svg xmlns="http://www.w3.org/2000/svg" width="90%" viewBox="0 0 500 500" fill="none"><path d="M350.8 52.11C338.1 49.11 324.8 48.23 311.94 50.53C277.87 56.64 251.94 83.38 223 102.33C203.97 114.771 183.068 124.079 161.09 129.9C138.09 136 113.09 138.59 93.84 152.6C76.84 164.93 66.62 184.73 61.45 205.06C55.14 229.84 55.79 256.91 66.55 280.11C78.09 305 100.12 323.53 123.55 337.8C162.86 361.72 209.73 376.03 255.14 368.59C281.41 364.3 306.2 352.91 328.14 337.85C369.57 309.44 400.82 267.74 419.62 221.39C427.84 201.1 437.84 175.6 437.14 153.39C436.5 132.98 426.84 110.75 414.77 94.65C399.14 73.75 376.23 58.13 350.8 52.11Z" fill="#BFC9D1"></path><path opacity="0.7" d="M350.8 52.11C338.1 49.11 324.8 48.23 311.94 50.53C277.87 56.64 251.94 83.38 223 102.33C203.97 114.771 183.068 124.079 161.09 129.9C138.09 136 113.09 138.59 93.84 152.6C76.84 164.93 66.62 184.73 61.45 205.06C55.14 229.84 55.79 256.91 66.55 280.11C78.09 305 100.12 323.53 123.55 337.8C162.86 361.72 209.73 376.03 255.14 368.59C281.41 364.3 306.2 352.91 328.14 337.85C369.57 309.44 400.82 267.74 419.62 221.39C427.84 201.1 437.84 175.6 437.14 153.39C436.5 132.98 426.84 110.75 414.77 94.65C399.14 73.75 376.23 58.13 350.8 52.11Z" fill="white"></path><path d="M251.77 454.12C345.493 454.12 421.47 443.764 421.47 430.99C421.47 418.216 345.493 407.86 251.77 407.86C158.047 407.86 82.0701 418.216 82.0701 430.99C82.0701 443.764 158.047 454.12 251.77 454.12Z" fill="#BFC9D1"></path><path opacity="0.5" d="M251.77 454.12C345.493 454.12 421.47 443.764 421.47 430.99C421.47 418.216 345.493 407.86 251.77 407.86C158.047 407.86 82.0701 418.216 82.0701 430.99C82.0701 443.764 158.047 454.12 251.77 454.12Z" fill="white"></path><path d="M238.5 386.1H377.89" stroke="#263238" stroke-linecap="round" stroke-linejoin="round"></path><path d="M111.18 386.1H220.03" stroke="#263238" stroke-linecap="round" stroke-linejoin="round"></path><path d="M354.78 279.89H264.3V393.1H354.78V279.89Z" fill="#263238" stroke="#263238" stroke-linecap="round" stroke-linejoin="round"></path><path d="M358.3 279.89H287.6V393.1H358.3V279.89Z" fill="white" stroke="#263238" stroke-linecap="round" stroke-linejoin="round"></path><path d="M351.36 287.03H295.77V322.52H351.36V287.03Z" fill="white" stroke="#263238" stroke-linecap="round" stroke-linejoin="round"></path><path d="M337.69 301.37H309.47V308.16H337.69V301.37Z" fill="#263238" stroke="#263238" stroke-linecap="round" stroke-linejoin="round"></path><path d="M351.36 335.73H295.77V371.22H351.36V335.73Z" fill="white" stroke="#263238" stroke-linecap="round" stroke-linejoin="round"></path><path d="M337.69 350.07H309.47V356.86H337.69V350.07Z" fill="#263238" stroke="#263238" stroke-linecap="round" stroke-linejoin="round"></path><path d="M141.4 397.28C141.4 399.28 130.59 400.94 117.26 400.94C103.93 400.94 93.1199 399.3 93.1199 397.28C93.1199 395.26 103.93 393.62 117.26 393.62C130.59 393.62 141.4 395.26 141.4 397.28Z" fill="#263238"></path><path d="M93.12 397.28L86.21 366.87H148.31L141.4 397.28H93.12Z" fill="#263238"></path><path d="M148.31 366.87C148.31 369.47 134.41 371.58 117.31 371.58C100.21 371.58 86.26 369.47 86.26 366.87C86.26 364.27 100.16 362.16 117.31 362.16C134.46 362.16 148.31 364.27 148.31 366.87Z" fill="#263238"></path><path d="M142.33 366.67C142.33 367.32 140.33 367.91 136.87 368.38C130.36 369.115 123.811 369.449 117.26 369.38C110.709 369.455 104.159 369.121 97.6499 368.38C94.2399 367.92 92.1899 367.33 92.1899 366.68C92.1899 365.18 103.42 363.96 117.26 363.96C131.1 363.96 142.33 365.17 142.33 366.67Z" fill="white"></path><path d="M136.87 368.38C130.36 369.115 123.811 369.449 117.26 369.38C110.709 369.455 104.159 369.121 97.6499 368.38C99.6499 367.38 107.65 366.68 117.26 366.68C126.87 366.68 134.86 367.39 136.87 368.38Z" fill="#BFC9D1"></path><path d="M138.85 376.79C141.36 376.35 143.9 375.79 146.42 375.18" stroke="white" stroke-linecap="round" stroke-linejoin="round"></path><path d="M98.9299 377.44C108.963 378.677 119.096 378.881 129.17 378.05" stroke="white" stroke-linecap="round" stroke-linejoin="round"></path><path d="M88.22 375.7C88.22 375.7 91.06 376.35 95.83 377.04" stroke="white" stroke-linecap="round" stroke-linejoin="round"></path><path d="M103.28 201.13C108.95 196.971 114.262 192.345 119.16 187.3C125.82 180.07 122.23 168.3 122.23 168.3C122.23 168.3 117.62 172.4 110.45 179.56C103.28 186.72 103.28 191.85 103.28 191.85V201.13Z" fill="#BFC9D1"></path><path d="M113.69 233.07C119.365 228.917 124.677 224.291 129.57 219.24C136.22 212.07 132.64 200.3 132.64 200.3C132.64 200.3 128.03 204.39 120.86 211.56C113.69 218.73 113.69 223.85 113.69 223.85V233.07Z" fill="#BFC9D1"></path><path d="M104.7 209.72C98.6257 206.177 92.8559 202.137 87.4499 197.64C80.0699 191.2 82.3899 179.11 82.3899 179.11C82.3899 179.11 87.3899 182.74 95.2999 189.11C103.21 195.48 103.73 200.59 103.73 200.59L104.7 209.72Z" fill="#BFC9D1"></path><path d="M118.25 247.38C111.839 244.498 105.678 241.09 99.8298 237.19C91.8298 231.56 92.8298 219.3 92.8298 219.3C92.8298 219.3 98.1898 222.3 106.71 227.85C115.23 233.4 116.3 238.36 116.3 238.36L118.25 247.38Z" fill="#BFC9D1"></path><path d="M113.94 288.82C108.274 284.66 102.963 280.037 98.0598 275C91.3998 267.78 94.9998 256 94.9998 256C94.9998 256 99.6098 260.09 106.78 267.26C113.95 274.43 113.95 279.57 113.95 279.57L113.94 288.82Z" fill="#BFC9D1"></path><path d="M115.36 298.74C120.389 293.803 124.992 288.451 129.12 282.74C134.69 274.74 129.47 263.54 129.47 263.54C129.47 263.54 125.47 268.26 119.41 276.38C113.35 284.5 114.06 289.56 114.06 289.56L115.36 298.74Z" fill="#BFC9D1"></path><path d="M121.13 328.63C115.464 324.466 110.152 319.841 105.25 314.8C98.5898 307.63 102.18 295.8 102.18 295.8C102.18 295.8 106.79 299.88 113.96 307.06C121.13 314.24 121.13 319.37 121.13 319.37V328.63Z" fill="#BFC9D1"></path><path d="M114 355.3C109.579 349.848 105.618 344.038 102.16 337.93C97.5299 329.32 103.98 318.83 103.98 318.83C103.98 318.83 107.41 323.94 112.53 332.7C117.65 341.46 116.35 346.42 116.35 346.42L114 355.3Z" fill="#BFC9D1"></path><path d="M109.36 370.86C109.36 370.86 119.28 340.16 121.17 328.86C123.06 317.56 116.45 308.06 114.27 291.07C112.09 274.08 120.27 257.07 117.39 243.81C114.51 230.55 107.47 221.14 104.63 206.48C103.678 201.223 103.011 195.919 102.63 190.59" stroke="#263238" stroke-linecap="round" stroke-linejoin="round"></path><path d="M96.0698 198.06L103.8 203.98" stroke="#263238" stroke-linecap="round" stroke-linejoin="round"></path><path d="M106.68 191.4L103.44 197.15" stroke="#263238" stroke-linecap="round" stroke-linejoin="round"></path><path d="M103.8 233.47C110.45 238.31 116.92 243.16 116.92 243.16" stroke="#263238" stroke-linecap="round" stroke-linejoin="round"></path><path d="M125.19 215.48C119.08 222.48 113.69 233.06 113.69 233.06" stroke="#263238" stroke-linecap="round" stroke-linejoin="round"></path><path d="M99.8499 268.3C105.335 273.773 109.993 280.015 113.68 286.83" stroke="#263238" stroke-linecap="round" stroke-linejoin="round"></path><path d="M126.26 274.43C126.26 274.43 125.72 275.16 121.94 280.73C119.25 284.963 116.909 289.408 114.94 294.02" stroke="#263238" stroke-linecap="round" stroke-linejoin="round"></path><path d="M107.75 307.15C110.537 310.217 113.062 313.512 115.3 317C117.549 320.771 119.498 324.714 121.13 328.79" stroke="#263238" stroke-linecap="round" stroke-linejoin="round"></path><path d="M105.07 329.22C106.32 331.95 109.37 338.74 112.07 343.95C113.716 347.493 114.382 351.412 114 355.3" stroke="#263238" stroke-linecap="round" stroke-linejoin="round"></path><path d="M149.24 266.08C146.138 262.852 143.309 259.374 140.78 255.68C137.38 250.47 140.91 243.47 140.91 243.47C140.91 243.47 143.37 246.55 147.08 251.82C150.79 257.09 150.24 260.3 150.24 260.3L149.24 266.08Z" fill="#BFC9D1"></path><path d="M139.24 285C136.136 281.775 133.306 278.296 130.78 274.6C127.38 269.39 130.91 262.39 130.91 262.39C130.91 262.39 133.36 265.47 137.08 270.74C140.8 276.01 140.24 279.22 140.24 279.22L139.24 285Z" fill="#BFC9D1"></path><path d="M147.36 271.35C151.569 269.799 155.64 267.896 159.53 265.66C164.86 262.42 164.71 254.58 164.71 254.58C164.71 254.58 161.18 256.3 155.54 259.43C149.9 262.56 149.01 265.72 149.01 265.72L147.36 271.35Z" fill="#BFC9D1"></path><path d="M134.83 293.48C139.166 292.372 143.401 290.9 147.49 289.08C153.13 286.43 153.81 278.63 153.81 278.63C153.81 278.63 150.12 279.93 144.18 282.49C138.24 285.05 137 288 137 288L134.83 293.48Z" fill="#BFC9D1"></path><path d="M133 319.91C137.009 317.902 140.843 315.56 144.46 312.91C149.46 309.14 148.46 301.37 148.46 301.37C148.46 301.37 145.11 303.44 139.84 307.15C134.57 310.86 134.01 314.09 134.01 314.09L133 319.91Z" fill="#BFC9D1"></path><path d="M131.05 326C128.442 322.362 126.137 318.516 124.16 314.5C121.54 308.85 126.03 302.42 126.03 302.42C126.03 302.42 128.03 305.82 130.94 311.57C133.85 317.32 132.87 320.42 132.87 320.42L131.05 326Z" fill="#BFC9D1"></path><path d="M124.54 352.13C120.652 349.907 116.956 347.365 113.49 344.53C108.76 340.53 110.17 332.77 110.17 332.77C110.17 332.77 113.39 335.03 118.44 339.05C123.49 343.07 123.87 346.3 123.87 346.3L124.54 352.13Z" fill="#BFC9D1"></path><path d="M124.18 344.08C128.183 342.08 132.016 339.756 135.64 337.13C140.64 333.35 139.64 325.58 139.64 325.58C139.64 325.58 136.31 327.66 131.03 331.36C125.75 335.06 125.2 338.3 125.2 338.3L124.18 344.08Z" fill="#BFC9D1"></path><path d="M125.76 361.64C129.138 358.702 132.26 355.48 135.09 352.01C138.93 347.1 136.02 339.83 136.02 339.83C136.02 339.83 133.31 342.68 129.15 347.61C124.99 352.54 125.27 355.8 125.27 355.8L125.76 361.64Z" fill="#BFC9D1"></path><path d="M127 371.89C127 371.89 124.12 351.56 124.16 344.24C124.2 336.92 129.42 331.74 132.59 321.3C135.76 310.86 132.59 299.3 135.76 291.3C138.93 283.3 144.39 278.17 147.76 269.3C148.944 266.103 149.945 262.841 150.76 259.53" stroke="#263238" stroke-linecap="round" stroke-linejoin="round"></path><path d="M154.08 264.95L148.59 267.83" stroke="#263238" stroke-linecap="round" stroke-linejoin="round"></path><path d="M148.16 259.64L149.56 263.59" stroke="#263238" stroke-linecap="round" stroke-linejoin="round"></path><path d="M145.36 286.3C140.7 288.65 136.11 290.99 136.11 290.99" stroke="#263238" stroke-linecap="round" stroke-linejoin="round"></path><path d="M133.93 272.73C136.119 276.626 137.898 280.738 139.24 285" stroke="#263238" stroke-linecap="round" stroke-linejoin="round"></path><path d="M144.05 308.61C140.019 311.449 136.419 314.854 133.36 318.72" stroke="#263238" stroke-linecap="round" stroke-linejoin="round"></path><path d="M126.83 309.58C126.83 309.58 127.07 310.08 128.83 314C130.088 316.939 131.091 319.98 131.83 323.09" stroke="#263238" stroke-linecap="round" stroke-linejoin="round"></path><path d="M114.69 340.33C115.881 341.535 117.161 342.648 118.52 343.66C120.669 345.519 122.647 347.567 124.43 349.78" stroke="#263238" stroke-linecap="round" stroke-linejoin="round"></path><path d="M134.92 332.09C132.842 333.728 130.899 335.531 129.11 337.48C127.296 339.604 125.648 341.864 124.18 344.24" stroke="#263238" stroke-linecap="round" stroke-linejoin="round"></path><path d="M134.21 346.25C133.13 347.81 130.47 351.74 128.21 354.74C126.801 356.785 125.956 359.165 125.76 361.64" stroke="#263238" stroke-linecap="round" stroke-linejoin="round"></path><path opacity="0.2" d="M103.28 201.13C108.95 196.971 114.262 192.345 119.16 187.3C125.82 180.07 122.23 168.3 122.23 168.3C122.23 168.3 117.62 172.4 110.45 179.56C103.28 186.72 103.28 191.85 103.28 191.85V201.13Z" fill="black"></path><path opacity="0.2" d="M113.69 233.07C119.365 228.917 124.677 224.291 129.57 219.24C136.22 212.07 132.64 200.3 132.64 200.3C132.64 200.3 128.03 204.39 120.86 211.56C113.69 218.73 113.69 223.85 113.69 223.85V233.07Z" fill="black"></path><path opacity="0.2" d="M104.7 209.72C98.6257 206.177 92.8559 202.137 87.4499 197.64C80.0699 191.2 82.3899 179.11 82.3899 179.11C82.3899 179.11 87.3899 182.74 95.2999 189.11C103.21 195.48 103.73 200.59 103.73 200.59L104.7 209.72Z" fill="black"></path><path opacity="0.2" d="M118.25 247.38C111.839 244.498 105.678 241.09 99.8298 237.19C91.8298 231.56 92.8298 219.3 92.8298 219.3C92.8298 219.3 98.1898 222.3 106.71 227.85C115.23 233.4 116.3 238.36 116.3 238.36L118.25 247.38Z" fill="black"></path><path opacity="0.2" d="M113.94 288.82C108.274 284.66 102.963 280.037 98.0598 275C91.3998 267.78 94.9998 256 94.9998 256C94.9998 256 99.6098 260.09 106.78 267.26C113.95 274.43 113.95 279.57 113.95 279.57L113.94 288.82Z" fill="black"></path><path opacity="0.2" d="M121.13 328.63C115.464 324.466 110.152 319.841 105.25 314.8C98.5898 307.63 102.18 295.8 102.18 295.8C102.18 295.8 106.79 299.88 113.96 307.06C121.13 314.24 121.13 319.37 121.13 319.37V328.63Z" fill="black"></path><path opacity="0.2" d="M149.24 266.08C146.138 262.852 143.309 259.374 140.78 255.68C137.38 250.47 140.91 243.47 140.91 243.47C140.91 243.47 143.37 246.55 147.08 251.82C150.79 257.09 150.24 260.3 150.24 260.3L149.24 266.08Z" fill="black"></path><path opacity="0.2" d="M137.08 270.74C133.36 265.47 130.91 262.39 130.91 262.39C130.535 263.183 130.227 264.006 129.99 264.85C129.69 264.05 129.47 263.58 129.47 263.58C129.47 263.58 125.47 268.3 119.41 276.42C113.35 284.54 114.06 289.6 114.06 289.6L115.36 298.74C120.389 293.804 124.992 288.451 129.12 282.74C130.535 280.659 131.389 278.248 131.6 275.74C133.911 279.011 136.464 282.103 139.24 284.99L140.24 279.21C140.24 279.21 140.8 276 137.08 270.74Z" fill="black"></path><path opacity="0.2" d="M147.36 271.35C151.569 269.799 155.64 267.896 159.53 265.66C164.86 262.42 164.71 254.58 164.71 254.58C164.71 254.58 161.18 256.3 155.54 259.43C149.9 262.56 149.01 265.72 149.01 265.72L147.36 271.35Z" fill="black"></path><path opacity="0.2" d="M134.83 293.48C139.166 292.372 143.401 290.9 147.49 289.08C153.13 286.43 153.81 278.63 153.81 278.63C153.81 278.63 150.12 279.93 144.18 282.49C138.24 285.05 137 288 137 288L134.83 293.48Z" fill="black"></path><path opacity="0.2" d="M133 319.91C137.009 317.902 140.843 315.56 144.46 312.91C149.46 309.14 148.46 301.37 148.46 301.37C148.46 301.37 145.11 303.44 139.84 307.15C134.57 310.86 134.01 314.09 134.01 314.09L133 319.91Z" fill="black"></path><path opacity="0.2" d="M131.05 326C128.442 322.362 126.137 318.516 124.16 314.5C121.54 308.85 126.03 302.42 126.03 302.42C126.03 302.42 128.03 305.82 130.94 311.57C133.85 317.32 132.87 320.42 132.87 320.42L131.05 326Z" fill="black"></path><path opacity="0.2" d="M124.54 352.13L123.87 346.3C123.87 346.3 123.49 343.06 118.44 339.05C116.79 337.73 115.33 336.6 114.12 335.68C113.67 334.75 113.12 333.75 112.54 332.68C107.42 324 104 318.83 104 318.83C104 318.83 97.5499 329.32 102.18 337.93C105.632 344.037 109.586 349.847 114 355.3L116.28 346.71C118.92 348.683 121.679 350.493 124.54 352.13Z" fill="black"></path><path opacity="0.2" d="M124.18 344.08C128.183 342.08 132.016 339.756 135.64 337.13C140.64 333.35 139.64 325.58 139.64 325.58C139.64 325.58 136.31 327.66 131.03 331.36C125.75 335.06 125.2 338.3 125.2 338.3L124.18 344.08Z" fill="black"></path><path opacity="0.2" d="M125.76 361.64C129.138 358.702 132.26 355.48 135.09 352.01C138.93 347.1 136.02 339.83 136.02 339.83C136.02 339.83 133.31 342.68 129.15 347.61C124.99 352.54 125.27 355.8 125.27 355.8L125.76 361.64Z" fill="black"></path><path d="M403.13 66.3799H100.4V228.48H403.13V66.3799Z" fill="#263238"></path><path d="M395.17 75.0298H108.62V220.56H395.17V75.0298Z" fill="white"></path><path d="M195.06 85V200.42" stroke="#263238" stroke-linecap="round" stroke-linejoin="round"></path><path d="M292.6 85V204.37" stroke="#263238" stroke-linecap="round" stroke-linejoin="round"></path><path d="M133.64 108.45H361.06" stroke="#263238" stroke-linecap="round" stroke-linejoin="round"></path><path d="M148.1 90.8899H144.88V89.3699H153.11V90.8899H149.9V99.0599H148.1V90.8899Z" fill="#263238"></path><path d="M152.94 95.3698C152.91 94.5844 153.116 93.808 153.53 93.1404C153.945 92.4728 154.55 91.9446 155.268 91.6235C155.985 91.3025 156.782 91.2033 157.556 91.3388C158.33 91.4742 159.046 91.8381 159.612 92.3837C160.178 92.9293 160.567 93.6316 160.731 94.4004C160.894 95.1692 160.824 95.9693 160.529 96.6978C160.234 97.4264 159.728 98.0501 159.076 98.4888C158.424 98.9275 157.656 99.1612 156.87 99.1598C156.358 99.1873 155.847 99.1092 155.367 98.9303C154.887 98.7515 154.449 98.4756 154.08 98.1201C153.711 97.7645 153.42 97.3368 153.224 96.8636C153.027 96.3904 152.931 95.8819 152.94 95.3698ZM159.08 95.3698C159.058 94.9404 158.912 94.5268 158.658 94.18C158.404 93.8331 158.053 93.5683 157.651 93.4182C157.248 93.2682 156.81 93.2394 156.391 93.3355C155.972 93.4316 155.59 93.6483 155.293 93.959C154.996 94.2696 154.796 94.6605 154.719 95.0833C154.641 95.5062 154.689 95.9425 154.857 96.3383C155.025 96.7341 155.305 97.0721 155.663 97.3105C156.02 97.5489 156.44 97.6773 156.87 97.6798C157.171 97.6875 157.47 97.6322 157.748 97.5175C158.027 97.4028 158.278 97.2312 158.486 97.0137C158.694 96.7962 158.854 96.5376 158.957 96.2545C159.059 95.9714 159.101 95.6701 159.08 95.3698Z" fill="#263238"></path><path d="M173.56 88.7799V99.0599H171.9V98.0599C171.595 98.4028 171.216 98.6713 170.791 98.8447C170.366 99.018 169.908 99.0917 169.45 99.0599C168.445 99.0599 167.481 98.6606 166.77 97.9499C166.059 97.2391 165.66 96.2751 165.66 95.2699C165.66 94.2648 166.059 93.3008 166.77 92.59C167.481 91.8792 168.445 91.4799 169.45 91.4799C169.896 91.4589 170.341 91.5378 170.753 91.7108C171.165 91.8838 171.533 92.1466 171.83 92.4799V88.6799L173.56 88.7799ZM171.86 95.3699C171.84 94.9376 171.694 94.5206 171.44 94.1706C171.185 93.8205 170.834 93.5529 170.429 93.4008C170.023 93.2488 169.583 93.219 169.161 93.3153C168.739 93.4115 168.354 93.6295 168.055 93.9422C167.756 94.2549 167.555 94.6485 167.478 95.0742C167.4 95.5 167.45 95.9391 167.619 96.3372C167.789 96.7352 168.072 97.0746 168.433 97.3133C168.794 97.552 169.217 97.6795 169.65 97.6799C169.95 97.6861 170.249 97.6298 170.526 97.5145C170.804 97.3993 171.055 97.2277 171.262 97.0105C171.47 96.7933 171.631 96.5354 171.733 96.253C171.836 95.9705 171.879 95.6699 171.86 95.3699Z" fill="#263238"></path><path d="M175.23 95.3698C175.2 94.5844 175.406 93.808 175.82 93.1404C176.235 92.4728 176.84 91.9446 177.558 91.6235C178.275 91.3025 179.072 91.2033 179.846 91.3388C180.62 91.4742 181.336 91.8381 181.902 92.3837C182.468 92.9293 182.857 93.6316 183.021 94.4004C183.184 95.1692 183.114 95.9693 182.819 96.6978C182.524 97.4264 182.018 98.0501 181.366 98.4888C180.714 98.9275 179.946 99.1612 179.16 99.1598C178.648 99.1873 178.137 99.1092 177.657 98.9303C177.177 98.7515 176.739 98.4756 176.37 98.1201C176.001 97.7645 175.71 97.3368 175.514 96.8636C175.318 96.3904 175.221 95.8819 175.23 95.3698ZM181.37 95.3698C181.348 94.9404 181.202 94.5268 180.948 94.18C180.694 93.8331 180.344 93.5683 179.941 93.4182C179.538 93.2682 179.1 93.2394 178.681 93.3355C178.262 93.4316 177.88 93.6483 177.583 93.959C177.286 94.2696 177.086 94.6605 177.009 95.0833C176.931 95.5062 176.979 95.9425 177.147 96.3383C177.315 96.7341 177.595 97.0721 177.953 97.3105C178.31 97.5489 178.73 97.6773 179.16 97.6798C179.461 97.6875 179.76 97.6322 180.038 97.5175C180.317 97.4028 180.568 97.2312 180.776 97.0137C180.984 96.7962 181.144 96.5376 181.247 96.2545C181.349 95.9714 181.391 95.6701 181.37 95.3698Z" fill="#263238"></path><path d="M223.8 89.3699H228C231.15 89.3699 233.3 91.3099 233.3 94.2199C233.3 97.1299 231.15 99.0599 228 99.0599H223.8V89.3699ZM228 97.5399C228.452 97.5647 228.904 97.4971 229.329 97.3412C229.754 97.1853 230.143 96.9444 230.471 96.6332C230.8 96.322 231.062 95.947 231.241 95.5312C231.42 95.1154 231.512 94.6675 231.512 94.2149C231.512 93.7622 231.42 93.3143 231.241 92.8985C231.062 92.4827 230.8 92.1078 230.471 91.7966C230.143 91.4854 229.754 91.2445 229.329 91.0886C228.904 90.9327 228.452 90.8651 228 90.8899H225.65V97.5399H228Z" fill="#263238"></path><path d="M234.48 95.3698C234.45 94.5848 234.655 93.8089 235.07 93.1415C235.484 92.4741 236.089 91.9459 236.805 91.6245C237.522 91.3032 238.319 91.2035 239.092 91.3381C239.866 91.4728 240.582 91.8357 241.148 92.3803C241.715 92.9248 242.105 93.6262 242.27 94.3943C242.434 95.1624 242.365 95.9621 242.072 96.6908C241.779 97.4196 241.274 98.044 240.624 98.4839C239.973 98.9239 239.205 99.1592 238.42 99.1598C237.908 99.1888 237.395 99.1117 236.914 98.9335C236.433 98.7552 235.993 98.4796 235.623 98.1239C235.254 97.7682 234.961 97.34 234.764 96.8661C234.568 96.3922 234.471 95.8828 234.48 95.3698ZM240.62 95.3698C240.598 94.94 240.451 94.526 240.197 94.1789C239.942 93.8319 239.592 93.5671 239.188 93.4173C238.785 93.2676 238.346 93.2394 237.927 93.3363C237.508 93.4332 237.126 93.6509 236.83 93.9625C236.533 94.2742 236.334 94.666 236.258 95.0894C236.181 95.5129 236.231 95.9495 236.4 96.3451C236.569 96.7408 236.851 97.0781 237.21 97.3153C237.569 97.5525 237.99 97.6792 238.42 97.6798C238.72 97.6876 239.019 97.6324 239.297 97.5175C239.575 97.4027 239.826 97.231 240.033 97.0133C240.24 96.7956 240.4 96.5369 240.501 96.2538C240.602 95.9707 240.642 95.6696 240.62 95.3698Z" fill="#263238"></path><path d="M243.8 89.4099C243.799 89.2697 243.828 89.1309 243.884 89.0026C243.941 88.8743 244.023 88.7592 244.127 88.6649C244.231 88.5706 244.353 88.4992 244.486 88.4553C244.619 88.4113 244.76 88.3959 244.9 88.4099C245.04 88.3944 245.182 88.4087 245.316 88.4519C245.451 88.4952 245.574 88.5664 245.679 88.6608C245.784 88.7553 245.868 88.8709 245.925 89C245.982 89.1291 246.011 89.2688 246.01 89.4099C245.984 89.6848 245.856 89.9401 245.652 90.1259C245.447 90.3117 245.181 90.4146 244.905 90.4146C244.629 90.4146 244.362 90.3117 244.158 90.1259C243.954 89.9401 243.826 89.6848 243.8 89.4099ZM244.03 91.6699H245.76V99.0599H244L244.03 91.6699Z" fill="#263238"></path><path d="M255.33 94.8198V99.0598H253.59V95.0598C253.59 93.7398 252.94 93.0598 251.83 93.0598C251.542 93.0492 251.255 93.101 250.989 93.2118C250.722 93.3225 250.483 93.4895 250.287 93.7013C250.092 93.9131 249.944 94.1647 249.855 94.4389C249.766 94.7131 249.737 95.0033 249.77 95.2898V99.0298H248V91.6698H249.65V92.6698C249.975 92.3253 250.372 92.057 250.813 91.8841C251.254 91.7112 251.728 91.638 252.2 91.6698C252.622 91.6327 253.047 91.6889 253.445 91.8344C253.843 91.9799 254.204 92.2111 254.503 92.5117C254.801 92.8122 255.03 93.1748 255.173 93.5736C255.316 93.9725 255.37 94.3979 255.33 94.8198Z" fill="#263238"></path><path d="M265 91.6698V97.9398C265 100.63 263.6 101.85 261 101.85C259.72 101.916 258.453 101.565 257.39 100.85L258.17 99.5398C258.957 100.129 259.917 100.442 260.9 100.43C262.53 100.43 263.25 99.6798 263.25 98.1898V97.7998C262.931 98.1328 262.545 98.3942 262.117 98.5666C261.69 98.7391 261.231 98.8185 260.77 98.7998C260.284 98.8255 259.799 98.752 259.343 98.584C258.887 98.4159 258.47 98.1567 258.117 97.8222C257.764 97.4877 257.484 97.0849 257.292 96.6384C257.1 96.1918 257.001 95.7108 257.001 95.2248C257.001 94.7387 257.1 94.2577 257.292 93.8112C257.484 93.3646 257.764 92.9618 258.117 92.6273C258.47 92.2928 258.887 92.0337 259.343 91.8656C259.799 91.6975 260.284 91.6241 260.77 91.6498C261.251 91.6252 261.731 91.7085 262.176 91.8937C262.621 92.0788 263.018 92.3611 263.34 92.7198V91.7198L265 91.6698ZM263.29 95.1398C263.316 94.6919 263.207 94.2464 262.978 93.8607C262.749 93.475 262.409 93.1667 262.004 92.9753C261.598 92.7838 261.144 92.7181 260.701 92.7865C260.257 92.8549 259.844 93.0543 259.515 93.3591C259.186 93.6639 258.955 94.0602 258.853 94.497C258.751 94.9339 258.781 95.3913 258.941 95.8106C259.1 96.2299 259.382 96.592 259.749 96.8502C260.116 97.1084 260.551 97.2511 261 97.2598C261.29 97.2822 261.581 97.2437 261.855 97.1467C262.129 97.0497 262.379 96.8964 262.59 96.6967C262.801 96.4969 262.968 96.2552 263.08 95.987C263.192 95.7189 263.246 95.4303 263.24 95.1398H263.29Z" fill="#263238"></path><path d="M315.86 89.3699H320.1C323.24 89.3699 325.39 91.3099 325.39 94.2199C325.39 97.1299 323.24 99.0599 320.1 99.0599H315.86V89.3699ZM320 97.5399C320.452 97.5647 320.904 97.4971 321.329 97.3412C321.754 97.1853 322.143 96.9444 322.472 96.6332C322.8 96.322 323.062 95.947 323.241 95.5312C323.42 95.1154 323.512 94.6675 323.512 94.2149C323.512 93.7622 323.42 93.3143 323.241 92.8985C323.062 92.4827 322.8 92.1078 322.472 91.7966C322.143 91.4854 321.754 91.2445 321.329 91.0886C320.904 90.9327 320.452 90.8651 320 90.8899H317.65V97.5399H320Z" fill="#263238"></path><path d="M326.53 95.3698C326.498 94.5821 326.702 93.8028 327.117 93.1323C327.532 92.4618 328.137 91.9307 328.856 91.6074C329.575 91.284 330.375 91.1832 331.151 91.3178C331.928 91.4525 332.647 91.8165 333.215 92.363C333.783 92.9096 334.175 93.6136 334.339 94.3845C334.504 95.1555 334.434 95.9581 334.139 96.689C333.844 97.42 333.337 98.0459 332.683 98.4862C332.029 98.9265 331.258 99.1611 330.47 99.1598C329.958 99.1887 329.445 99.1117 328.964 98.9334C328.482 98.7552 328.043 98.4796 327.673 98.1239C327.304 97.7682 327.011 97.34 326.814 96.8661C326.618 96.3922 326.521 95.8828 326.53 95.3698ZM332.67 95.3698C332.648 94.94 332.501 94.5259 332.247 94.1789C331.992 93.8319 331.642 93.5671 331.238 93.4173C330.835 93.2675 330.396 93.2394 329.977 93.3363C329.558 93.4332 329.176 93.6509 328.879 93.9625C328.583 94.2741 328.384 94.6659 328.308 95.0894C328.231 95.5129 328.281 95.9495 328.45 96.3451C328.619 96.7407 328.901 97.0781 329.26 97.3153C329.619 97.5525 330.04 97.6792 330.47 97.6798C330.77 97.6876 331.069 97.6323 331.347 97.5175C331.625 97.4027 331.875 97.2309 332.083 97.0132C332.29 96.7956 332.449 96.5368 332.551 96.2538C332.652 95.9707 332.692 95.6695 332.67 95.3698Z" fill="#263238"></path><path d="M343.37 94.8199V99.0599H341.64V95.0599C341.64 93.7399 340.99 93.0599 339.88 93.0599C339.591 93.0479 339.303 93.0986 339.035 93.2087C338.768 93.3188 338.527 93.4856 338.331 93.6975C338.134 93.9095 337.985 94.1617 337.895 94.4366C337.806 94.7115 337.776 95.0026 337.81 95.2899V99.0299H336.08V91.6699H337.73V92.6699C338.055 92.326 338.452 92.0581 338.893 91.8853C339.334 91.7124 339.807 91.6389 340.28 91.6699C340.699 91.6391 341.119 91.6999 341.512 91.8481C341.905 91.9964 342.261 92.2285 342.555 92.5283C342.85 92.8282 343.075 93.1885 343.215 93.5843C343.356 93.98 343.409 94.4017 343.37 94.8199Z" fill="#263238"></path><path d="M352.58 95.9199H346.77C346.883 96.4581 347.19 96.9359 347.632 97.2623C348.075 97.5887 348.622 97.7409 349.17 97.6899C349.541 97.7034 349.91 97.6392 350.254 97.5014C350.599 97.3636 350.911 97.1553 351.17 96.8899L352.1 97.9599C351.54 98.5246 350.83 98.917 350.053 99.0905C349.277 99.264 348.467 99.2113 347.72 98.9387C346.973 98.6662 346.32 98.1851 345.838 97.5526C345.355 96.9201 345.065 96.1626 345 95.3699C344.984 94.8654 345.073 94.3632 345.26 93.8944C345.447 93.4256 345.728 93.0002 346.086 92.6448C346.444 92.2893 346.872 92.0113 347.342 91.8281C347.813 91.6449 348.315 91.5604 348.82 91.5799C349.324 91.5608 349.826 91.6474 350.295 91.8344C350.763 92.0213 351.187 92.3043 351.539 92.6652C351.892 93.026 352.165 93.4567 352.34 93.9294C352.516 94.4022 352.591 94.9065 352.56 95.4099C352.6 95.5499 352.59 95.7499 352.58 95.9199ZM346.76 94.7699H351C350.93 94.2628 350.678 93.7982 350.292 93.4619C349.906 93.1256 349.412 92.9404 348.9 92.9404C348.388 92.9404 347.893 93.1256 347.507 93.4619C347.121 93.7982 346.87 94.2628 346.8 94.7699H346.76Z" fill="#263238"></path><path d="M136.79 123.51C136.79 123.51 134.01 129.45 138.06 136.72L148.67 135.5C148.67 135.5 146.94 125.73 147.03 122.07L136.79 123.51Z" fill="#BFC9D1" stroke="#263238" stroke-miterlimit="10"></path><path d="M136.79 122.89L147.03 122.07C147.48 125.628 148.343 129.121 149.6 132.48L139.23 133.78C137.963 130.267 137.143 126.608 136.79 122.89Z" fill="white" stroke="#263238" stroke-miterlimit="10"></path><path d="M151.79 142.14L162.03 141.33C162.481 144.884 163.343 148.374 164.6 151.73L154.23 153C152.97 149.495 152.151 145.847 151.79 142.14Z" fill="#BFC9D1" stroke="#263238" stroke-miterlimit="10"></path><path d="M154.64 162.27L164.89 161.46C165.335 165.014 166.195 168.505 167.45 171.86L157.08 173.16C155.818 169.645 154.998 165.987 154.64 162.27Z" fill="white" stroke="#263238" stroke-miterlimit="10"></path><path d="M165.75 122.81L177.22 122.07C177.145 126.229 177.805 130.37 179.17 134.3L167.81 135.62C167.81 135.62 165.75 132.51 165.75 122.81Z" fill="white" stroke="#263238" stroke-miterlimit="10"></path><path d="M167.45 121L178.92 120.27C178.861 124.432 179.538 128.573 180.92 132.5L169.56 133.82C169.56 133.82 167.45 130.67 167.45 121Z" fill="#BFC9D1" stroke="#263238" stroke-miterlimit="10"></path><path d="M176.49 123.59C176.491 123.677 176.475 123.763 176.442 123.844C176.41 123.925 176.361 123.998 176.3 124.06C176.238 124.121 176.165 124.17 176.084 124.202C176.003 124.235 175.917 124.251 175.83 124.25C175.742 124.251 175.655 124.235 175.574 124.203C175.493 124.17 175.419 124.122 175.357 124.06C175.294 123.999 175.245 123.926 175.211 123.845C175.177 123.764 175.16 123.677 175.16 123.59C175.16 123.412 175.23 123.242 175.356 123.116C175.482 122.991 175.652 122.92 175.83 122.92C175.917 122.92 176.004 122.937 176.085 122.971C176.166 123.005 176.239 123.054 176.3 123.117C176.362 123.179 176.41 123.253 176.443 123.334C176.475 123.416 176.491 123.502 176.49 123.59Z" fill="#263238"></path><path d="M145 124.92C145.001 125.007 144.985 125.093 144.952 125.174C144.92 125.255 144.871 125.328 144.81 125.39C144.748 125.451 144.675 125.5 144.594 125.533C144.513 125.565 144.427 125.581 144.34 125.58C144.252 125.581 144.166 125.565 144.084 125.533C144.003 125.5 143.929 125.452 143.867 125.39C143.804 125.329 143.755 125.256 143.721 125.175C143.687 125.094 143.67 125.008 143.67 124.92C143.67 124.742 143.741 124.572 143.866 124.446C143.992 124.321 144.162 124.25 144.34 124.25C144.427 124.25 144.514 124.267 144.595 124.301C144.676 124.335 144.749 124.384 144.81 124.447C144.872 124.509 144.92 124.583 144.953 124.664C144.985 124.746 145.001 124.832 145 124.92Z" fill="#263238"></path><path d="M157.48 143.91C157.48 144.043 157.441 144.172 157.367 144.282C157.293 144.392 157.189 144.478 157.066 144.529C156.944 144.58 156.809 144.593 156.679 144.567C156.549 144.541 156.43 144.477 156.336 144.384C156.242 144.29 156.179 144.171 156.153 144.041C156.127 143.911 156.14 143.776 156.191 143.654C156.242 143.531 156.327 143.427 156.438 143.353C156.548 143.279 156.677 143.24 156.81 143.24C156.988 143.24 157.158 143.311 157.284 143.436C157.409 143.562 157.48 143.732 157.48 143.91Z" fill="#263238"></path><path d="M172.46 145.61L182.28 144.61C182.368 149.047 183.017 153.455 184.21 157.73L174.16 158.62C174.16 158.62 172.33 154 172.46 145.61Z" fill="white" stroke="#263238" stroke-miterlimit="10"></path><path d="M130.08 148.32C130.08 148.32 125.5 156.38 130.69 164.59L141.12 163.37C141.12 163.37 138.43 153.89 139.97 147.8L130.08 148.32Z" fill="white" stroke="#263238" stroke-miterlimit="10"></path><path d="M130.08 148.32L139.97 147.8C139.983 151.954 140.517 156.089 141.56 160.11L131.61 161.46C131.61 161.46 129.05 158.34 130.08 148.32Z" fill="#BFC9D1" stroke="#263238" stroke-miterlimit="10"></path><path d="M136.52 150.1C136.522 150.233 136.484 150.364 136.411 150.476C136.338 150.587 136.234 150.675 136.111 150.727C135.988 150.779 135.853 150.793 135.722 150.767C135.591 150.742 135.47 150.678 135.376 150.583C135.282 150.489 135.218 150.369 135.192 150.238C135.167 150.107 135.181 149.972 135.233 149.849C135.285 149.726 135.372 149.621 135.484 149.549C135.596 149.476 135.727 149.438 135.86 149.44C136.035 149.44 136.203 149.509 136.327 149.633C136.45 149.757 136.52 149.925 136.52 150.1Z" fill="#263238"></path><path d="M180.5 147.18C180.5 147.358 180.429 147.528 180.304 147.654C180.178 147.779 180.008 147.85 179.83 147.85C179.742 147.85 179.656 147.832 179.575 147.799C179.494 147.765 179.421 147.715 179.36 147.653C179.298 147.591 179.25 147.517 179.217 147.435C179.185 147.354 179.169 147.267 179.17 147.18C179.169 147.093 179.185 147.006 179.217 146.926C179.25 146.845 179.299 146.772 179.36 146.71C179.422 146.649 179.495 146.6 179.576 146.567C179.657 146.535 179.743 146.519 179.83 146.52C179.918 146.519 180.004 146.535 180.086 146.567C180.167 146.6 180.241 146.648 180.303 146.71C180.366 146.771 180.415 146.844 180.449 146.925C180.483 147.006 180.5 147.092 180.5 147.18Z" fill="#263238"></path><path d="M163.59 163.92C163.601 164.014 163.593 164.11 163.565 164.2C163.537 164.291 163.49 164.374 163.427 164.445C163.364 164.517 163.287 164.573 163.2 164.612C163.114 164.651 163.02 164.672 162.925 164.672C162.83 164.672 162.736 164.651 162.65 164.612C162.563 164.573 162.486 164.517 162.423 164.445C162.36 164.374 162.313 164.291 162.285 164.2C162.257 164.11 162.248 164.014 162.26 163.92C162.28 163.758 162.358 163.608 162.481 163.5C162.603 163.391 162.761 163.332 162.925 163.332C163.088 163.332 163.246 163.391 163.369 163.5C163.491 163.608 163.57 163.758 163.59 163.92Z" fill="#263238"></path><path d="M213.65 152.39L223.9 151.58C224.346 155.135 225.208 158.626 226.47 161.98L216.09 163.29C214.829 159.771 214.009 156.11 213.65 152.39Z" fill="#BFC9D1" stroke="#263238" stroke-miterlimit="10"></path><path d="M216.27 176.48L226.51 175.67C226.961 179.224 227.824 182.714 229.08 186.07L218.71 187.37C217.443 183.857 216.623 180.198 216.27 176.48Z" fill="white" stroke="#263238" stroke-miterlimit="10"></path><path d="M251.9 122.81L263.37 122.07C263.295 126.229 263.955 130.37 265.32 134.3L254 135.62C254 135.62 251.9 132.51 251.9 122.81Z" fill="white" stroke="#263238" stroke-miterlimit="10"></path><path d="M253.6 121L265.07 120.27C264.993 124.415 265.646 128.541 267 132.46L255.64 133.78C255.64 133.78 253.6 130.67 253.6 121Z" fill="#BFC9D1" stroke="#263238" stroke-miterlimit="10"></path><path d="M262.65 123.59C262.65 123.768 262.579 123.938 262.454 124.064C262.328 124.189 262.158 124.26 261.98 124.26C261.802 124.26 261.632 124.189 261.506 124.064C261.38 123.938 261.31 123.768 261.31 123.59C261.31 123.412 261.38 123.242 261.506 123.116C261.632 122.991 261.802 122.92 261.98 122.92C262.158 122.92 262.328 122.991 262.454 123.116C262.579 123.242 262.65 123.412 262.65 123.59Z" fill="#263238"></path><path d="M219.34 154.16C219.341 154.247 219.325 154.333 219.293 154.414C219.26 154.495 219.211 154.568 219.15 154.63C219.088 154.691 219.015 154.74 218.934 154.772C218.853 154.805 218.767 154.821 218.68 154.82C218.592 154.821 218.506 154.805 218.424 154.773C218.343 154.74 218.269 154.692 218.207 154.63C218.144 154.569 218.095 154.496 218.061 154.415C218.027 154.334 218.01 154.248 218.01 154.16C218.01 153.982 218.081 153.812 218.206 153.686C218.332 153.561 218.502 153.49 218.68 153.49C218.768 153.49 218.854 153.507 218.935 153.541C219.016 153.575 219.089 153.624 219.15 153.687C219.212 153.749 219.26 153.823 219.293 153.904C219.325 153.986 219.341 154.072 219.34 154.16Z" fill="#263238"></path><path d="M236.49 150.23L246.31 149.23C246.4 153.664 247.052 158.07 248.25 162.34L238.19 163.24C238.19 163.24 236.36 158.58 236.49 150.23Z" fill="white" stroke="#263238" stroke-miterlimit="10"></path><path d="M244.53 151.79C244.53 151.968 244.459 152.138 244.334 152.264C244.208 152.389 244.038 152.46 243.86 152.46C243.727 152.46 243.598 152.421 243.488 152.347C243.378 152.273 243.292 152.169 243.241 152.046C243.19 151.924 243.177 151.789 243.203 151.659C243.229 151.529 243.292 151.41 243.386 151.316C243.48 151.222 243.599 151.159 243.729 151.133C243.859 151.107 243.994 151.12 244.116 151.171C244.239 151.222 244.343 151.307 244.417 151.418C244.491 151.528 244.53 151.657 244.53 151.79Z" fill="#263238"></path><path d="M223.34 178.25C223.351 178.344 223.343 178.44 223.315 178.53C223.287 178.621 223.24 178.704 223.177 178.776C223.114 178.847 223.037 178.904 222.95 178.943C222.864 178.981 222.77 179.002 222.675 179.002C222.58 179.002 222.486 178.981 222.4 178.943C222.313 178.904 222.236 178.847 222.173 178.776C222.11 178.704 222.063 178.621 222.035 178.53C222.007 178.44 221.998 178.344 222.01 178.25C222.03 178.088 222.108 177.938 222.231 177.83C222.353 177.721 222.511 177.662 222.675 177.662C222.838 177.662 222.996 177.721 223.119 177.83C223.241 177.938 223.32 178.088 223.34 178.25Z" fill="#263238"></path><path d="M315 122.89L325.24 122.07C325.691 125.628 326.553 129.121 327.81 132.48L317.44 133.78C316.173 130.267 315.353 126.608 315 122.89Z" fill="#BFC9D1" stroke="#263238" stroke-miterlimit="10"></path><path d="M332.84 162.27L343.09 161.46C343.535 165.015 344.398 168.506 345.66 171.86L335.28 173.16C334.018 169.645 333.198 165.987 332.84 162.27Z" fill="#BFC9D1" stroke="#263238" stroke-miterlimit="10"></path><path d="M345.66 121L357.13 120.27C357.055 124.429 357.711 128.568 359.07 132.5L347.71 133.82C347.71 133.82 345.66 130.67 345.66 121Z" fill="#BFC9D1" stroke="#263238" stroke-miterlimit="10"></path><path d="M354.7 123.59C354.7 123.677 354.683 123.764 354.649 123.845C354.615 123.926 354.565 123.999 354.503 124.06C354.441 124.122 354.367 124.17 354.286 124.203C354.204 124.235 354.117 124.251 354.03 124.25C353.943 124.251 353.856 124.235 353.776 124.202C353.695 124.17 353.622 124.121 353.56 124.06C353.499 123.998 353.45 123.925 353.417 123.844C353.385 123.763 353.369 123.677 353.37 123.59C353.369 123.502 353.385 123.416 353.417 123.334C353.45 123.253 353.498 123.179 353.56 123.117C353.621 123.054 353.694 123.005 353.775 122.971C353.856 122.937 353.942 122.92 354.03 122.92C354.208 122.92 354.378 122.991 354.504 123.116C354.629 123.242 354.7 123.412 354.7 123.59Z" fill="#263238"></path><path d="M323.2 124.92C323.2 125.098 323.129 125.268 323.004 125.394C322.878 125.519 322.708 125.59 322.53 125.59C322.352 125.59 322.182 125.519 322.056 125.394C321.93 125.268 321.86 125.098 321.86 124.92C321.86 124.742 321.93 124.572 322.056 124.446C322.182 124.321 322.352 124.25 322.53 124.25C322.708 124.25 322.878 124.321 323.004 124.446C323.129 124.572 323.2 124.742 323.2 124.92Z" fill="#263238"></path><path d="M308.28 148.32L318.17 147.8C318.183 151.954 318.717 156.089 319.76 160.11L309.81 161.46C309.81 161.46 307.25 158.34 308.28 148.32Z" fill="#BFC9D1" stroke="#263238" stroke-miterlimit="10"></path><path d="M314.72 150.1C314.721 150.187 314.705 150.274 314.673 150.355C314.64 150.437 314.592 150.511 314.53 150.573C314.469 150.635 314.396 150.685 314.315 150.719C314.234 150.752 314.147 150.77 314.06 150.77C313.882 150.77 313.712 150.699 313.586 150.574C313.46 150.448 313.39 150.277 313.39 150.1C313.39 150.012 313.407 149.926 313.441 149.845C313.475 149.764 313.524 149.691 313.587 149.63C313.649 149.568 313.723 149.52 313.804 149.487C313.885 149.455 313.972 149.438 314.06 149.44C314.147 149.438 314.233 149.455 314.314 149.487C314.395 149.52 314.468 149.569 314.53 149.63C314.591 149.692 314.64 149.765 314.672 149.846C314.705 149.926 314.721 150.013 314.72 150.1Z" fill="#263238"></path><path d="M341.79 163.92C341.792 164.053 341.754 164.184 341.681 164.296C341.608 164.407 341.504 164.495 341.381 164.547C341.258 164.599 341.123 164.613 340.992 164.587C340.861 164.562 340.74 164.498 340.646 164.404C340.552 164.309 340.488 164.189 340.462 164.058C340.437 163.927 340.451 163.792 340.503 163.669C340.555 163.546 340.642 163.441 340.754 163.369C340.866 163.296 340.997 163.258 341.13 163.26C341.305 163.26 341.473 163.329 341.597 163.453C341.72 163.577 341.79 163.745 341.79 163.92Z" fill="#263238"></path><path opacity="0.2" d="M100.4 67.23L108.63 75.03V220.56L100.4 228.48V67.23Z" fill="black"></path><path opacity="0.2" d="M403.14 66.3799V227.74L395.18 220.56V75.0299L403.14 66.3799Z" fill="black"></path><path d="M207.01 121.76L228.56 120.23" stroke="#263238" stroke-linecap="round" stroke-linejoin="round"></path><path d="M207.01 125.68L228.56 124.15" stroke="#263238" stroke-linecap="round" stroke-linejoin="round"></path><path d="M207.01 129.61L228.56 128.08" stroke="#263238" stroke-linecap="round" stroke-linejoin="round"></path><path d="M260 160.89C261 157.29 264.28 154.7 267.77 153.36C274.95 150.6 282.19 153.5 284.77 160.91C286.65 166.31 286.22 173.37 281.23 176.91C279.087 178.337 276.655 179.271 274.108 179.645C271.56 180.018 268.962 179.822 266.5 179.07C262.8 177.85 259.67 174.24 260.07 170.36" stroke="#263238" stroke-linecap="round" stroke-linejoin="round"></path><path d="M281.39 135.58C280.057 140.76 278.79 145.946 277.59 151.14" stroke="#263238" stroke-linecap="round" stroke-linejoin="round"></path><path d="M274.1 145.48C274.794 147.635 275.777 149.687 277.02 151.58C279.101 150.784 280.876 149.348 282.09 147.48" stroke="#263238" stroke-linecap="round" stroke-linejoin="round"></path><path d="M266.48 161.89L276.72 161.08C277.171 164.634 278.034 168.124 279.29 171.48L268.92 172.79C267.654 169.273 266.834 165.611 266.48 161.89Z" fill="#BFC9D1" stroke="#263238" stroke-miterlimit="10"></path><path d="M272.17 163.66C272.17 163.748 272.153 163.834 272.119 163.915C272.085 163.996 272.035 164.069 271.973 164.13C271.911 164.192 271.837 164.24 271.756 164.273C271.674 164.305 271.587 164.321 271.5 164.32C271.413 164.321 271.326 164.305 271.246 164.272C271.165 164.24 271.092 164.191 271.03 164.13C270.969 164.068 270.92 163.995 270.887 163.914C270.855 163.833 270.839 163.747 270.84 163.66C270.839 163.572 270.855 163.486 270.887 163.404C270.92 163.323 270.968 163.249 271.03 163.187C271.091 163.124 271.164 163.075 271.245 163.041C271.326 163.007 271.412 162.99 271.5 162.99C271.678 162.99 271.848 163.061 271.974 163.186C272.099 163.312 272.17 163.482 272.17 163.66Z" fill="#263238"></path><path d="M188.68 439.5C188.819 440.121 189.089 440.706 189.472 441.214C189.855 441.723 190.342 442.144 190.9 442.45C194.9 444.16 202.1 441.45 207.21 440.18C212.32 438.91 223.37 435.08 224.37 430.82C224.547 430.191 224.519 429.522 224.29 428.91C223.35 426.67 219.09 426.86 216.43 426.86C213.16 426.86 205.22 426 202.95 425.01C200.68 424.02 188.07 430.12 188.07 430.12C188.07 430.12 187.46 435.78 188.68 439.5Z" fill="#BFC9D1"></path><path d="M160.19 427.9C160.383 428.52 160.725 429.083 161.185 429.541C161.645 429.999 162.209 430.339 162.83 430.53C166.51 431.67 168.5 429.4 170.48 426.99C172.46 424.58 174.59 423.99 177.72 421.74C180.85 419.49 181.09 415.11 179.59 414.05C179.535 414.006 179.474 413.969 179.41 413.94C177.72 413.09 171.33 415.36 171.33 415.36L161.55 413.75C161.55 413.75 160.84 417.35 160.13 420.75C159.68 422.91 159.41 425.78 160.19 427.9Z" fill="#BFC9D1"></path><path d="M160.19 427.91C160.384 428.53 160.725 429.093 161.185 429.551C161.645 430.009 162.209 430.349 162.83 430.54C166.51 431.68 168.5 429.41 170.48 427C172.46 424.59 174.59 424 177.72 421.75C180.85 419.5 181.09 415.12 179.59 414.06C179.866 415.817 179.442 417.612 178.41 419.06C177.229 420.637 175.776 421.992 174.12 423.06C172.468 424.134 170.933 425.377 169.54 426.77C168.91 427.48 167.85 427.69 167.07 428.23C165.91 429.03 164.88 429.78 163.51 429.47C162.309 429.182 161.179 428.651 160.19 427.91Z" fill="#FDFEFF"></path><path d="M188.68 439.5C188.819 440.121 189.089 440.706 189.472 441.214C189.855 441.723 190.342 442.144 190.9 442.45C194.9 444.16 201.81 443 207.21 440.18C212.31 438.91 223.37 435.08 224.37 430.82C224.547 430.191 224.519 429.522 224.29 428.91C223.73 430.13 222.2 431.91 218.35 433.91C210.72 438.02 200.25 440.51 196.56 441.11C194.1 441.55 190.68 440.35 188.68 439.5Z" fill="#FDFEFF"></path><path d="M163.11 263.12C162.64 262.85 152.19 290.24 151.92 291.39C150.874 295.853 150.537 300.452 150.92 305.02C151.747 313.48 154.997 321.521 160.28 328.18C165.28 334.56 175.81 344.18 172.28 353.32C170.13 358.92 155.49 384.32 159.37 414.86C159.37 414.86 163.98 422.61 172.65 414.86L180.88 398.08L187.34 429.08C187.34 429.08 195.95 438.55 203.26 429.08C202.658 412.639 204.252 396.19 208 380.17C212 363.543 215.23 346.76 217.69 329.82C218.82 322.08 220.69 313.9 219.69 306.11C218.69 297.91 209.69 274.5 206.69 266.8C206.77 266.8 197.11 282.49 163.11 263.12Z" fill="#263238"></path><path d="M178.21 372.42C177.57 377.36 178.49 382.73 179.33 387.6" stroke="#FDFEFF" stroke-linecap="round" stroke-linejoin="round"></path><path d="M172.48 309.81L181.86 313.46C181.86 313.46 185.34 339.58 185.34 344.55C185.34 347.92 181.78 357.26 179.62 365.55" stroke="#FDFEFF" stroke-linecap="round" stroke-linejoin="round"></path><path d="M188.68 428.28C188.68 428.28 187.17 435.15 188.68 439.5C190.19 443.85 193.51 443.5 197.36 443.5C201.21 443.5 216.06 437.34 220.03 435.64C224 433.94 225.6 430.17 224.29 428.88C222.98 427.59 222.21 427.22 216.43 426.83C210.65 426.44 204.68 426.43 203 425" stroke="#263238" stroke-miterlimit="10"></path><path d="M188.68 439.5C191.732 441.049 195.225 441.498 198.57 440.77C203.87 439.48 222.31 433.92 224.29 428.91" stroke="#263238" stroke-miterlimit="10"></path><path d="M161.24 416.16C161.24 416.16 159.34 422.52 159.7 425.01C160.06 427.5 159.6 430.26 163.89 430.78C168.18 431.3 170.44 426.78 171.43 425.99C172.42 425.2 178.2 422.46 179.74 419.31C180.398 418.084 180.563 416.653 180.2 415.31C179.65 413.66 178.45 413.73 176.95 413.98C175.047 414.328 173.17 414.803 171.33 415.4" stroke="#263238" stroke-miterlimit="10"></path><path d="M159.94 428.19C161.81 428.86 163.86 429.54 165.75 428.93C167.96 428.22 169.26 425.99 171.09 424.57C171.76 424.06 172.5 423.65 173.22 423.2C174.938 422.195 176.451 420.875 177.68 419.31C178.86 417.71 179.63 416.39 179.54 414.41" stroke="#263238" stroke-miterlimit="10"></path><path d="M257.05 204.5C257.05 204.5 257.99 200.37 261.05 199.5C264.11 198.63 265.22 200.64 266.66 199.61C268.1 198.58 269.49 194.61 270.66 193.69C271.83 192.77 273.58 191.1 274.66 191.21C275.74 191.32 273.43 194.28 273.43 194.28C273.43 194.28 275.74 194.15 275.51 195.08C275.3 195.779 275.008 196.45 274.64 197.08C275.812 196.555 276.869 195.804 277.75 194.87C279.11 193.37 280.91 191.42 283.18 192.76C283.18 192.76 284.54 193.43 283.9 194.31C283.26 195.19 281.35 201.17 278.9 202.63C276.45 204.09 272.81 204.2 270.72 204.47C268.63 204.74 260.53 210.26 260.53 210.26L257.11 206.26L257.05 204.5Z" fill="white"></path><path d="M260.66 210.29C263.12 207.78 265.66 206.68 268.66 205.19C270.66 204.19 273.11 204.6 275.33 204.33C278.21 203.99 279.56 202.15 280.91 199.73C281.97 197.8 282.82 195.19 284.36 193.82C283.538 193.628 282.68 193.652 281.87 193.89C280.36 194.41 279.23 196.05 278.14 197.44C277.096 198.816 275.621 199.802 273.95 200.24C273.809 200.296 273.651 200.296 273.51 200.24C273.12 200.02 273.32 199.31 273.57 198.88L275.25 196.04C275.354 195.909 275.428 195.757 275.468 195.595C275.507 195.433 275.512 195.264 275.48 195.1C275.35 194.7 274.89 194.68 274.48 194.76C272.757 195.141 271.17 195.985 269.89 197.2C268.75 198.2 267.65 199.65 266.22 199.68C265.535 199.613 264.863 199.455 264.22 199.21C263.323 199.007 262.388 199.044 261.51 199.318C260.632 199.591 259.842 200.093 259.22 200.77C257.86 202.18 256.85 203.56 256.93 205.77" stroke="#263238" stroke-linecap="round" stroke-linejoin="round"></path><path d="M283.48 193.52C283.48 192.97 283.02 192.63 282.59 192.52C282.138 192.37 281.66 192.317 281.186 192.363C280.713 192.41 280.254 192.555 279.84 192.79C279.239 193.224 278.703 193.743 278.25 194.33C277.027 195.715 275.663 196.969 274.18 198.07" stroke="#263238" stroke-linecap="round" stroke-linejoin="round"></path><path d="M268.08 198.59C269.68 196.4 270.58 193.59 272.74 192C273.277 191.56 273.93 191.286 274.62 191.21C274.655 191.195 274.692 191.188 274.73 191.188C274.768 191.188 274.805 191.195 274.84 191.21C274.91 191.29 274.84 191.42 274.84 191.52C274.21 192.75 273.57 193.96 272.91 195.18L273 195" stroke="#263238" stroke-linecap="round" stroke-linejoin="round"></path><path d="M261 211.42C260.34 212.59 239.27 250.15 235.63 252.31C231.99 254.47 231.74 253.64 229.22 252.39C226.7 251.14 209.65 233.26 209.65 233.26L208 240.83L204.13 258.28L215.46 287.47C204.3 295.38 185.39 296.84 185.39 296.84L181.18 280.23L173.4 295.32C168.579 294.469 163.92 292.873 159.59 290.59C156.24 288.914 153.015 286.999 149.94 284.86L160.8 258.86C157.59 260.951 153.831 262.044 150 262C145.771 261.893 141.675 260.497 138.26 258C138.402 249.949 139.195 241.923 140.63 234C142.63 222.31 145.25 212.24 146.08 210.4C147.47 207.32 155.63 198.08 155.63 198.08C159.52 195.76 167.97 194.45 167.97 194.45L166.5 186.45C168.363 185.625 170.338 185.079 172.36 184.83C174.233 184.595 176.127 184.595 178 184.83C178.33 184.83 178.66 184.91 179 184.97C183.626 185.764 188.03 187.533 191.92 190.16V195.93C199.43 197.31 210.97 204.12 213.74 206.38C216.51 208.64 230.6 230 230.6 230L255.71 204.53L261 211.42Z" fill="#BFC9D1"></path><path opacity="0.2" d="M261.62 212.11C260.96 213.28 239.89 250.83 236.26 252.99C232.63 255.15 232.36 254.32 229.85 253.07C227.34 251.82 210.28 234 210.28 234L215.59 211C215.59 211 229.86 232.91 232.93 241.48L261.62 212.11Z" fill="black"></path><path opacity="0.2" d="M179 184.86V194.71C179 194.71 166.1 202.38 163.93 206.86C161.76 211.34 164.4 245.04 176.07 257.26L171.07 256.79L159.55 290.59C156.2 288.914 152.975 286.999 149.9 284.86L160.76 258.86C157.561 260.944 153.818 262.036 150 262C150.62 259.61 155.91 237.65 140.64 234C142.64 222.31 145.26 212.24 146.09 210.4C147.48 207.32 155.64 198.08 155.64 198.08C159.53 195.76 167.98 194.45 167.98 194.45L166.51 186.45C168.373 185.625 170.348 185.079 172.37 184.83L179 184.86Z" fill="black"></path><path d="M191.76 147.31C191.76 147.31 196.44 149.31 197.19 153.09C197.94 156.87 198.51 160.84 200.61 162.41C202.71 163.98 203.79 164.56 203.04 165.88C202.725 166.482 202.357 167.054 201.94 167.59C201.94 167.59 203.87 180.59 201.62 182.18C199.37 183.77 193.38 180.39 193.38 180.39C192.333 180.874 191.426 181.618 190.747 182.551C190.068 183.484 189.639 184.575 189.5 185.72C188.99 189.72 189.43 188.45 189.43 188.45C189.43 188.45 180.3 184 171 185.54L171.34 173.89C171.34 173.89 177.7 143.87 191.76 147.31Z" fill="white"></path><path d="M196.14 161.56C196.26 162.46 196.03 163.24 195.63 163.29C195.23 163.34 194.8 162.66 194.68 161.75C194.56 160.84 194.79 160.08 195.19 160.02C195.59 159.96 196 160.66 196.14 161.56Z" fill="#263238"></path><path d="M187.66 144.1C187.66 144.1 196.95 149.35 197.6 154.6C198.25 159.85 199.18 161.7 201.94 163.34C204.7 164.98 201.94 167.59 201.94 167.59C201.94 167.59 203.2 180.74 201.62 182.18C200.04 183.62 191.62 181.13 187.62 175.18" stroke="#263238" stroke-linecap="round" stroke-linejoin="round"></path><path opacity="0.6" d="M186.2 186.81L186.42 194.92C186.42 194.92 202.1 206.24 206.86 210.69L205.06 253.19L215.38 208.54C215.38 208.54 206.15 198 191.92 196V190.23C190.141 188.889 188.223 187.743 186.2 186.81Z" fill="white"></path><path d="M192.76 180C191.428 181.05 190.433 182.469 189.9 184.08C189.528 185.327 189.293 186.612 189.2 187.91" stroke="#263238" stroke-linecap="round" stroke-linejoin="round"></path><path d="M186.82 166.28C186.82 166.28 183.15 162.41 181.26 163.34C179.37 164.27 178.36 167.87 179.92 172.41C181.48 176.95 185.43 177.5 187.66 175.5" stroke="#263238" stroke-linecap="round" stroke-linejoin="round"></path><path d="M171.38 178.93C171.32 181.12 171.22 183.04 171.04 185.06" stroke="#263238" stroke-linecap="round" stroke-linejoin="round"></path><path d="M186.82 166.28C186.82 166.28 195.82 159.64 195.07 149.72C195.07 149.72 190.14 141.33 178.32 141.33C166.5 141.33 161.32 145.47 159.53 154.07C157.74 162.67 156.83 174.63 164.05 178.93C171.27 183.23 178.65 179.93 180.48 173.83C180.48 173.83 176.97 166.83 180.41 164.01C183 161.89 186.82 166.28 186.82 166.28Z" fill="#263238"></path><path d="M167.8 193.84L166.07 186.48C166.07 186.48 180.73 181.13 191.9 190.19V195.62" stroke="#263238" stroke-linecap="round" stroke-linejoin="round"></path><path d="M204.12 257.27L215.46 287.47C215.46 287.47 200.46 296.47 185.38 296.84L181.18 280.23L173.39 295.31C166.08 293.47 157.27 292.13 149.93 284.86L161.62 258.36L145.13 211.62L155.63 198.08C155.63 198.08 165.22 191.75 186.42 194.92C207.62 198.09 215.42 208.19 215.42 208.19L204.12 257.27Z" stroke="#263238" stroke-linecap="round" stroke-linejoin="round"></path><path d="M204.12 257.27C204.12 257.27 199.42 259.55 191.74 257.27" stroke="#263238" stroke-linecap="round" stroke-linejoin="round"></path><path d="M191.21 261C195.301 261.454 199.416 260.386 202.77 258" stroke="#263238" stroke-linecap="round" stroke-linejoin="round"></path><g opacity="0.3"><path d="M162.82 151.07C164.46 149.26 166.91 148.44 169.29 147.86C172.325 147.001 175.508 146.793 178.63 147.25C180.187 147.49 181.672 148.069 182.982 148.945C184.291 149.821 185.393 150.973 186.21 152.32" stroke="white" stroke-linecap="round" stroke-linejoin="round"></path><path d="M162.39 154.28C163.18 157.641 164.936 160.697 167.441 163.073C169.946 165.448 173.092 167.039 176.49 167.65" stroke="white" stroke-linecap="round" stroke-linejoin="round"></path></g><path d="M215.46 208.19L230.6 230C230.6 230 233.43 237.55 231.86 244.78" stroke="#263238" stroke-linecap="round" stroke-linejoin="round"></path><path d="M230.6 230L255.7 204.53L261.03 211.45C261.03 211.45 247.88 239.45 235.64 252.36C235.226 252.789 234.731 253.131 234.184 253.368C233.636 253.604 233.048 253.73 232.452 253.737C231.856 253.745 231.264 253.634 230.711 253.411C230.158 253.189 229.655 252.858 229.23 252.44L209.66 233.31" stroke="#263238" stroke-linecap="round" stroke-linejoin="round"></path><path d="M145.13 211.62C145.13 211.62 137.69 242.05 138.27 257.96C138.27 257.96 148.47 267.29 161.62 258.36" stroke="#263238" stroke-linecap="round" stroke-linejoin="round"></path><path d="M156.55 244C155.983 247.401 154.749 250.657 152.92 253.58" stroke="#263238" stroke-linecap="round" stroke-linejoin="round"></path><path d="M157.53 158.18C156.525 160.904 156.016 163.786 156.03 166.69C155.5 180.03 157.46 193.36 157.15 206.69C157.04 211.28 156.63 215.99 154.67 220.14C152.71 224.29 148.95 227.85 144.39 228.41C142.217 228.607 140.028 228.32 137.98 227.57C134.828 226.558 131.989 224.75 129.74 222.32C127.301 219.45 125.684 215.974 125.06 212.26C124.16 207.535 124.46 202.66 125.93 198.08C128.78 189.21 135.69 182.32 140.3 174.22C142.565 170.22 144.268 165.926 145.36 161.46C146.23 157.87 146.9 153.85 149.79 151.54C151.765 150.117 154.202 149.486 156.62 149.77C158.27 149.9 162.42 150.06 161.98 152.5C161.66 154.25 158.36 156.23 157.53 158.18Z" fill="#263238"></path><g opacity="0.3"><path d="M159.69 153.5C156.82 154.067 154.267 155.686 152.53 158.04C151.162 160.076 150.191 162.353 149.67 164.75C145.49 180.75 148.08 197.75 145.25 213.97C144.39 218.89 142.85 224.04 139.03 227.25" stroke="white" stroke-linecap="round" stroke-linejoin="round"></path><path d="M139.05 190.37C139.72 189.37 140.42 188.37 141.12 187.37C141.55 186.77 142 186.15 142.42 185.52" stroke="white" stroke-linecap="round" stroke-linejoin="round"></path><path d="M133 223.08C130.24 217.3 130.31 210.45 132.12 204.31C132.997 201.392 134.184 198.576 135.66 195.91" stroke="white" stroke-linecap="round" stroke-linejoin="round"></path></g><path d="M333.57 222.12C334.252 219.308 334.05 216.353 332.99 213.66C331.681 210.882 330.225 208.175 328.63 205.55C328.63 205.55 329 199.25 327.39 197.09C325.78 194.93 320.77 187.09 319.59 187.04C318.41 186.99 318.59 192.39 320.59 195.98L320.26 198.42C320.26 198.42 312.67 194.51 310.39 193.6C308.11 192.69 302.39 190.14 301.16 191.28C299.93 192.42 308.82 195.51 310.39 198.02C310.39 198.02 296.27 196.54 296.53 198.42C296.79 200.3 301.58 200.59 301.58 200.59C301.58 200.59 300.1 200.86 300.51 202.03C300.92 203.2 311.27 205.55 311.27 205.55C314.021 209.747 317.978 213.014 322.62 214.92C330.54 218.24 333.57 222.12 333.57 222.12Z" fill="white"></path><path d="M334.63 221.27C334.48 213.38 328.63 205.55 328.63 205.55C328.63 205.55 329.12 198.55 326.45 195.69C325.987 195.196 325.55 194.679 325.14 194.14C324.73 193.62 324.32 193.06 323.91 192.49C322.02 189.88 320.28 187.14 319.59 187.04C318.7 186.91 318.97 191.84 319.89 194.12C319.988 194.374 320.115 194.616 320.27 194.84C320.5 195.176 320.622 195.573 320.62 195.98C320.69 197.71 319.38 200.12 320.73 202.34" stroke="#263238" stroke-linecap="round" stroke-linejoin="round"></path><path d="M320.29 198.42C320.29 198.42 303.45 189.03 300.54 191.78C300.54 191.78 309.54 196.09 310.42 198.02" stroke="#263238" stroke-linecap="round" stroke-linejoin="round"></path><path d="M313.54 202.49C313.54 202.49 303.29 199.28 300.54 200.96C297.79 202.64 311.3 205.55 311.3 205.55C311.3 205.55 316.15 212.81 319.59 212.4" stroke="#263238" stroke-linecap="round" stroke-linejoin="round"></path><path d="M300.54 201C300.54 201 296.41 200.35 296.54 198.46C296.67 196.57 309.54 196.46 314.59 199.73" stroke="#263238" stroke-linecap="round" stroke-linejoin="round"></path><path d="M320.27 194.84C320.5 195.176 320.622 195.573 320.62 195.98L309.53 200.51C309.285 200.611 309.01 200.61 308.765 200.508C308.52 200.406 308.326 200.21 308.225 199.965C308.124 199.72 308.125 199.444 308.227 199.2C308.33 198.955 308.525 198.761 308.77 198.66L319.89 194.12C319.988 194.374 320.115 194.616 320.27 194.84Z" fill="#263238"></path><path d="M331.17 191.68L325.17 194.14C324.76 193.62 324.35 193.06 323.94 192.49L330.45 189.83C330.692 189.749 330.955 189.763 331.186 189.869C331.417 189.976 331.599 190.166 331.695 190.402C331.791 190.638 331.793 190.902 331.701 191.139C331.609 191.377 331.43 191.57 331.2 191.68H331.17Z" fill="#263238"></path><path d="M330.25 211.13L299.9 214.74L290.33 223.05L313.27 267.33L346.5 265.08L348.85 254.12L330.25 211.13Z" fill="white"></path><path d="M330.25 211.13L326.45 218.72L346.5 265.08L348.85 254.12L330.25 211.13Z" fill="#263238"></path><path opacity="0.9" d="M330.25 211.13L326.45 218.72L346.5 265.08L348.85 254.12L330.25 211.13Z" fill="white"></path><path d="M290.33 223.05L326.45 218.72L346.5 265.08L313.27 267.33L290.33 223.05Z" fill="#263238"></path><path opacity="0.6" d="M290.33 223.05L326.45 218.72L346.5 265.08L313.27 267.33L290.33 223.05Z" fill="white"></path><path d="M326.45 218.72L290.33 223.05L313.27 267.33L346.5 265.08L326.45 218.72Z" stroke="#263238" stroke-linecap="round" stroke-linejoin="round"></path><path d="M326.45 218.72L330.25 211.13" stroke="#263238" stroke-linecap="round" stroke-linejoin="round"></path><path d="M346.5 265.08L348.85 254.12L330.25 211.13L299.9 214.74L290.33 223.05" stroke="#263238" stroke-linecap="round" stroke-linejoin="round"></path><path d="M313.62 249.27C313.62 249.27 312.31 242.78 308.72 241.27C305.13 239.76 294.13 240.88 293.72 243.11C293.31 245.34 297.49 247.79 297.49 247.79C297.49 247.79 296.88 255.16 300.89 257.88C304.9 260.6 311.89 259.35 311.89 259.35L315.53 260.28L317.53 249.75L313.62 249.27Z" fill="white"></path><path d="M315 249L313.58 249.26C313.58 249.26 312.1 241.6 308.07 240.93C304.04 240.26 293.28 241.2 293.69 243.88C294.1 246.56 297.45 247.78 297.45 247.78C297.45 247.78 297.31 256.65 301.62 258.26C305.93 259.87 311.83 259.34 311.83 259.34C311.16 259.04 312.38 259.49 313.78 259.84" stroke="#263238" stroke-linecap="round" stroke-linejoin="round"></path><path d="M404.09 415.44L404.62 427.85C404.62 427.85 395.84 433.22 391.76 431.85C387.68 430.48 374.5 423.51 374.5 423.51C374.5 423.51 373.9 416.38 381.94 416.51C389.98 416.64 401.06 420.96 401.06 420.96L404.09 415.44Z" fill="#BFC9D1"></path><path opacity="0.2" d="M404.09 415.44L404.62 427.85C404.62 427.85 395.84 433.22 391.76 431.85C387.68 430.48 374.5 423.51 374.5 423.51C374.5 423.51 373.9 416.38 381.94 416.51C389.98 416.64 401.06 420.96 401.06 420.96L404.09 415.44Z" fill="black"></path><path d="M378.21 418.25C380.87 419.732 383.638 421.013 386.49 422.08C387.948 422.633 389.502 422.888 391.06 422.83L392.31 421.96L394.05 421.09L394.65 419.17L389.56 418.09C389.56 418.09 381.93 416.72 378.21 418.25Z" fill="white"></path><path d="M375.25 420.61L374.5 423.51C374.5 423.51 384.6 430.67 390.36 431.51C396.12 432.35 404.62 427.86 404.62 427.86L404.54 425.99C404.54 425.99 399.36 428.94 394.54 429.15C389.72 429.36 375.25 420.61 375.25 420.61Z" fill="white"></path><path d="M394.81 418.75C394.81 418.75 382.58 417.1 378.47 418.17C374.36 419.24 374.47 423.51 374.47 423.51C374.47 423.51 388.47 433.01 394.2 431.95C397.875 431.198 401.391 429.81 404.59 427.85V414.71" stroke="#263238" stroke-linecap="round" stroke-linejoin="round"></path><path d="M375.25 420.61C375.25 420.61 389.71 429.32 394.57 429.14C399.43 428.96 404.62 425.27 404.62 425.27" stroke="#263238" stroke-linecap="round" stroke-linejoin="round"></path><path d="M377.89 418.68C382.3 419.39 384.71 422.85 389.16 423.05C390.36 423.089 391.547 422.798 392.592 422.209C393.638 421.62 394.502 420.756 395.09 419.71" stroke="#263238" stroke-linecap="round" stroke-linejoin="round"></path><path d="M353.38 421.66L353 439.31C353 439.31 343.26 441.73 337.86 439.7C332.46 437.67 321.35 423.37 321.35 423.37C321.35 423.37 324.67 416.9 331.75 419.61C338.83 422.32 348.47 427 348.47 427L353.38 421.66Z" fill="#BFC9D1"></path><path opacity="0.2" d="M353.38 421.66L353 439.31C353 439.31 343.26 441.73 337.86 439.7C332.46 437.67 321.35 423.37 321.35 423.37C321.35 423.37 324.67 416.9 331.75 419.61C338.83 422.32 348.47 427 348.47 427L353.38 421.66Z" fill="black"></path><path d="M321.36 423.37L322.54 421.09C322.54 421.09 329.28 428.24 330.82 429.73C332.36 431.22 336.82 435.55 340.66 436.89C344.5 438.23 352.5 436.82 352.5 436.82L353.01 439.31C353.01 439.31 341.18 441.19 338.42 439.91C335.66 438.63 324.42 428.42 321.36 423.37Z" fill="white"></path><path d="M327.21 418.75C327.21 418.75 331.71 422.44 333.21 423.75C334.71 425.06 337.28 427.09 339.77 427.03C341.608 426.834 343.373 426.203 344.92 425.19L338.8 422.45C338.8 422.45 330.27 417.89 327.21 418.75Z" fill="white"></path><path d="M340.11 423.37C340.11 423.37 332.46 418.94 327.55 418.76C322.64 418.58 321.36 423.37 321.36 423.37C321.36 423.37 333.36 439.67 340.11 440.37C344.441 440.765 348.807 440.396 353.01 439.28L353.38 424.73" stroke="#263238" stroke-linecap="round" stroke-linejoin="round"></path><path d="M322.66 420.94C322.66 420.94 334.93 435.37 339.98 436.73C345.03 438.09 353.08 436.73 353.08 436.73" stroke="#263238" stroke-linecap="round" stroke-linejoin="round"></path><path d="M326 418.91C328.094 419.386 329.996 420.48 331.46 422.05C332.908 423.613 334.548 424.987 336.34 426.14C338.21 427.14 340.66 427.47 342.41 426.26" stroke="#263238" stroke-linecap="round" stroke-linejoin="round"></path><path d="M351.73 150.15C351.73 150.15 344.73 156.35 344.08 160.57C343.43 164.79 345.68 169.73 345.49 171.57C345.3 173.41 341.71 177.1 342.33 178.22C343.148 179.368 344.087 180.424 345.13 181.37C345.13 181.37 344.7 190.43 350.13 193.68L352.65 194.27L364 188.09L365.78 190.09L382.1 187.09C380.882 184.589 380.182 181.868 380.04 179.09C379.81 174.46 382.1 165.54 382.1 165.54L377.51 156L351.73 150.15Z" fill="white"></path><path d="M392.36 267.33L398.24 290.76C398.24 290.76 393.67 293.12 387.45 296.09C376.3 301.42 359.84 308.73 354.81 308.09C346.98 307.01 328.63 287.94 328.63 287.94L339.81 263.62C339.81 263.62 316.4 264.34 311.89 262.83C311.89 262.83 310.65 253.83 313.84 246.13L342.22 247.54L342.5 245.13C342.5 245.13 348.37 224.36 351.93 216.3C355.49 208.24 359.49 201 359.49 201L366.65 195.73L364.65 190.33C364.65 190.33 373 184.21 381.97 184.41C384.978 184.437 387.918 185.303 390.46 186.91L388.79 192.59C388.79 192.59 404.16 210.59 406.51 216.67C408.86 222.75 397.76 254.69 392.36 267.33Z" fill="#BFC9D1"></path><path opacity="0.2" d="M337.57 268.44L358.16 272C358.16 272 371.35 260.61 375.98 232C375.98 232 366.14 256.36 358.27 262.71L339.81 263.5L337.57 268.44Z" fill="black"></path><path opacity="0.2" d="M392.36 267.33L398.24 290.76C398.24 290.76 393.56 292.57 387.34 295.54C386.017 288.75 384.301 282.042 382.2 275.45C381.974 274.559 381.584 273.718 381.05 272.97C380.445 272.001 379.665 271.153 378.75 270.47C376.17 269.02 372.63 266.18 371.1 263.64C375.67 264.57 381.1 266.75 385.75 266.51C386.335 266.541 386.913 266.363 387.38 266.01C387.69 265.653 387.895 265.217 387.97 264.75C389.917 257.25 391.86 249.757 393.8 242.27C394.59 239.737 395.014 237.103 395.06 234.45C394.96 231.11 393.68 227.93 392.41 224.83C389.197 216.99 385.953 209.164 382.68 201.35C382.305 200.184 381.612 199.145 380.68 198.35C379.825 197.827 378.859 197.512 377.86 197.43C374.44 196.91 370.1 195.84 366.64 195.71C370.56 192.45 376.3 191.08 381.35 190.42C381.868 188.465 382.057 186.437 381.91 184.42C384.918 184.447 387.858 185.313 390.4 186.92L388.73 192.6C388.73 192.6 404.1 210.6 406.45 216.68C408.8 222.76 397.76 254.69 392.36 267.33Z" fill="black"></path><path d="M351.11 167.56C351.24 168.48 351 169.27 350.59 169.32C350.18 169.37 349.74 168.68 349.59 167.76C349.44 166.84 349.71 166.05 350.12 166C350.53 165.95 351 166.64 351.11 167.56Z" fill="#263238"></path><path d="M369.51 176.6L375.12 175.06C375.12 175.06 376.53 169.06 375.9 165.49C375.27 161.92 370.48 161.62 369.04 161.73C367.6 161.84 367.86 167.19 367.86 167.19" stroke="#263238" stroke-linecap="round" stroke-linejoin="round"></path><path d="M349.42 151.8L344.08 160.57C343.662 161.252 343.519 162.067 343.68 162.85L345.49 171.61C345.579 172.05 345.573 172.504 345.473 172.942C345.373 173.38 345.181 173.792 344.91 174.15C343.91 175.45 342.43 177.52 342.33 178.26C342.23 179 343.23 179.71 344.08 180.26C344.446 180.497 344.758 180.808 344.995 181.173C345.233 181.539 345.392 181.95 345.46 182.38C345.94 185.23 346.15 188.12 348.16 191.27C350.79 195.4 354.09 194.11 354.09 194.11L364.09 188.11C364.88 187.6 367.22 179.27 367.22 179.27" stroke="#263238" stroke-linecap="round" stroke-linejoin="round"></path><path d="M347.27 162.64C347.27 162.64 350.46 158.79 353.52 162.89" stroke="#263238" stroke-linecap="round" stroke-linejoin="round"></path><path d="M349 182.18C349 182.18 357.17 176.86 358.39 174.18C358.39 174.18 359.06 181.99 355.84 183.38C352.62 184.77 349 182.18 349 182.18Z" fill="#263238"></path><path d="M381.08 184.41C381.08 184.41 378.95 177.5 380.19 172.89" stroke="#263238" stroke-linecap="round" stroke-linejoin="round"></path><path d="M332.11 291.37C332.11 291.37 331.77 321.72 334.29 359.88C336.81 398.04 340.41 425.76 340.41 425.76C340.41 425.76 348.69 432.6 355.17 425.76L366.33 326.76L391.53 418.92C391.53 418.92 396.53 423.33 400.83 421.17C403.473 419.797 405.627 417.643 407 415C407 415 395.59 315.37 395.59 292C395.59 292 359.48 308.83 354.8 308.11C350.12 307.39 332.11 291.37 332.11 291.37Z" fill="#263238"></path><path d="M366.33 326.76V320.23L375.38 315.79" stroke="white" stroke-linecap="round" stroke-linejoin="round"></path><path d="M375.38 265.08C375.38 265.08 380.61 268.83 390.86 269.58" stroke="#263238" stroke-linecap="round" stroke-linejoin="round"></path><path d="M375.38 269.58C379.709 270.78 384.282 270.78 388.61 269.58" stroke="#263238" stroke-linecap="round" stroke-linejoin="round"></path><path d="M367.77 165.22C367.08 164.68 368.51 170.68 364.59 170.96C364.183 171.055 363.76 171.055 363.353 170.961C362.946 170.868 362.565 170.683 362.24 170.42C361.698 169.735 361.313 168.94 361.11 168.09C360.43 165.89 359.74 163.69 359.06 161.49C358.61 160.07 358.06 158.49 356.87 157.68C355.967 157.189 354.997 156.832 353.99 156.62C351.74 155.91 349.61 154.1 349.45 151.75C349.45 151.75 340.63 152.53 339.28 149.12C337.22 143.92 340.52 141.64 345.04 141.68C349.56 141.72 353.72 143.86 358.59 142.21C363.46 140.56 373.94 136.46 376.14 141.49C376.14 141.49 379.94 139.81 382.21 146.12C384.48 152.43 389.7 165.12 384.95 169.03C380.2 172.94 381.31 175.34 379.06 175.03C376.81 174.72 376.14 171.32 376.14 171.32C376.14 171.32 377.34 163.32 372.26 162.06C367.18 160.8 367.77 165.22 367.77 165.22Z" fill="#263238"></path><path d="M373.26 136.82C374.224 137.289 374.987 138.091 375.406 139.078C375.825 140.065 375.873 141.171 375.54 142.19" stroke="#263238" stroke-linecap="round" stroke-linejoin="round"></path><path opacity="0.6" d="M366.65 195.49L365.01 190.22L370.37 187.35L371.73 193.01L366.65 195.49Z" fill="white"></path><path d="M376.14 141.49C377.286 140.744 378.661 140.434 380.016 140.618C381.371 140.802 382.614 141.466 383.52 142.49" stroke="#263238" stroke-linecap="round" stroke-linejoin="round"></path><path d="M366.48 195.24L364.6 190.24C364.6 190.24 372.6 185.24 380.7 184.42C384.21 184.05 387.05 185.72 390.43 186.83L388.76 192.51" stroke="#263238" stroke-linecap="round" stroke-linejoin="round"></path><path d="M339.81 263.57L328.63 287.89C333.94 294.6 352.31 307.07 354.81 308.04C357.31 309.01 398.24 290.76 398.24 290.76L392.37 267.33C392.37 267.33 409.7 225.55 407 217.91C404.3 210.27 389.28 192.01 386.21 190.33C383.14 188.65 375.37 191.45 375.37 191.45C375.37 191.45 364.42 195.76 360.55 199.63C356.68 203.5 347.55 225.49 345.71 235.02" stroke="#263238" stroke-linecap="round" stroke-linejoin="round"></path><path d="M342.22 247.49L313.84 246.08C309.67 256.08 311.9 262.78 311.9 262.78C320.25 264.78 358.27 262.78 358.27 262.78C367.05 253.86 377.51 228.51 377.51 228.51C378.077 222.967 376.932 217.383 374.23 212.51" stroke="#263238" stroke-linecap="round" stroke-linejoin="round"></path><path opacity="0.6" d="M366.65 204.9L364.65 211.13C364.65 211.13 341.85 244.01 342.42 250.43C342.42 250.43 342.02 247.29 346.09 233.98C348.958 225.219 353.048 216.907 358.24 209.29L366.65 204.9Z" fill="white"></path><path d="M344.41 255.53C342.666 252.707 341.929 249.376 342.32 246.08C343.02 240.64 350.89 220.43 358.27 209.29L367.84 204.29" stroke="#263238" stroke-linecap="round" stroke-linejoin="round"></path><path d="M365.31 189.8L364.04 188.09" stroke="#263238" stroke-linecap="round" stroke-linejoin="round"></path></svg>