<svg xmlns="http://www.w3.org/2000/svg" width="1512" height="2137" viewBox="0 0 1512 2137" fill="none" style="width: 100%;">
  <g clip-path="url(#clip0_33_120)">
    <path d="M851.963 717.192C879.881 746.738 925.923 748.565 954.808 721.271L1341.52 355.862C1413.73 287.621 1448.52 180.92 1434.82 166.42C1421.12 151.919 1311.5 181.694 1240.41 248.864L853.703 614.273C824.818 641.567 824.037 687.638 851.956 717.184L851.963 717.192Z" stroke="#141414" stroke-width="2" stroke-miterlimit="10" opacity="1" pathLength="1" stroke-dashoffset="0px" stroke-dasharray="1px 1px"/>
    <path d="M1269.41 424C1256.42 436.267 1223.28 422.255 1195.35 392.702C1167.43 363.149 1155.33 329.262 1168.3 317.002" stroke="#141414" stroke-width="2" stroke-miterlimit="10" opacity="1" pathLength="1" stroke-dashoffset="0px" stroke-dasharray="1px 1px"/>
    <path d="M1135.25 550.771C1122.26 563.038 1089.12 549.026 1061.19 519.473C1033.27 489.92 1021.17 456.033 1034.14 443.773" stroke="#141414" stroke-width="2" stroke-miterlimit="10" opacity="1" pathLength="1" stroke-dashoffset="0px" stroke-dasharray="1px 1px"/>
    <path d="M1009.28 669.802C996.296 682.068 963.148 668.057 935.223 638.504C907.297 608.95 895.198 575.063 908.172 562.804" stroke="#141414" stroke-width="2" stroke-miterlimit="10" opacity="1" pathLength="1" stroke-dashoffset="0px" stroke-dasharray="1px 1px"/>
    <path d="M1036.77 757.384C1027.47 766.168 1007.24 759.859 991.591 743.294C975.939 726.729 970.784 706.175 980.08 697.391" stroke="#141414" stroke-width="2" stroke-miterlimit="10" opacity="1" pathLength="1" stroke-dashoffset="0px" stroke-dasharray="1px 1px"/>
    <path d="M1256.46 537.672L1278.82 451.919C1282.5 437.84 1265.44 427.743 1254.87 437.737L919.345 754.78C910.049 763.565 915.204 784.119 930.856 800.684C946.509 817.248 966.738 823.558 976.034 814.774L1240.18 565.174C1248.08 557.716 1253.72 548.184 1256.46 537.672Z" stroke="#141414" stroke-width="2" stroke-miterlimit="10" opacity="1" pathLength="1" stroke-dashoffset="0px" stroke-dasharray="1px 1px"/>
    <path d="M1124.31 674.665C1115.01 683.449 1094.78 677.14 1079.13 660.575C1063.48 644.01 1058.32 623.456 1067.62 614.672" stroke="#141414" stroke-width="2" stroke-miterlimit="10" opacity="1" pathLength="1" stroke-dashoffset="0px" stroke-dasharray="1px 1px"/>
    <path d="M1230.81 574.034C1221.51 582.818 1201.28 576.509 1185.63 559.944C1169.98 543.379 1164.82 522.825 1174.12 514.041" stroke="#141414" stroke-width="2" stroke-miterlimit="10" opacity="1" pathLength="1" stroke-dashoffset="0px" stroke-dasharray="1px 1px"/>
    <path d="M958.881 818.504C958.881 818.504 426.177 1370.19 316.271 2135.27" stroke="#141414" stroke-width="2" stroke-miterlimit="10" opacity="1" pathLength="1" stroke-dashoffset="0px" stroke-dasharray="1px 1px"/>
    <path d="M914.65 771.696C914.65 771.696 333.705 1272.33 -436.374 1338.76" stroke="#141414" stroke-width="2" stroke-miterlimit="10" opacity="1" pathLength="1" stroke-dashoffset="0px" stroke-dasharray="1px 1px"/>
    <path d="M821.954 530.63C812.658 539.415 817.813 559.969 833.465 576.534C849.117 593.098 869.347 599.408 878.643 590.624" stroke="#141414" stroke-width="2" stroke-miterlimit="10" opacity="1" pathLength="1" stroke-dashoffset="0px" stroke-dasharray="1px 1px"/>
    <path d="M1053.75 323.725L1140.63 306.252C1154.89 303.38 1164.01 320.977 1153.43 330.97L817.908 648.013C808.612 656.798 788.383 650.488 772.73 633.923C757.078 617.359 751.923 596.804 761.219 588.02L1025.37 338.421C1033.26 330.962 1043.1 325.864 1053.75 323.725Z" stroke="#141414" stroke-width="2" stroke-miterlimit="10" opacity="1" pathLength="1" stroke-dashoffset="0px" stroke-dasharray="1px 1px"/>
    <path d="M909.495 447.911C900.198 456.696 905.353 477.25 921.006 493.815C936.658 510.379 956.887 516.689 966.184 507.905" stroke="#141414" stroke-width="2" stroke-miterlimit="10" opacity="1" pathLength="1" stroke-dashoffset="0px" stroke-dasharray="1px 1px"/>
    <path d="M1015.99 347.28C1006.69 356.065 1011.85 376.619 1027.5 393.184C1043.15 409.748 1063.38 416.058 1072.68 407.274" stroke="#141414" stroke-width="2" stroke-miterlimit="10" opacity="1" pathLength="1" stroke-dashoffset="0px" stroke-dasharray="1px 1px"/>
    <path d="M756.524 604.935C756.524 604.935 175.572 1105.57 -594.507 1172" stroke="#141414" stroke-width="2" stroke-miterlimit="10" opacity="1" pathLength="1" stroke-dashoffset="0px" stroke-dasharray="1px 1px"/>
    <path d="M800.755 651.744C800.755 651.744 268.051 1203.43 158.145 1968.51" stroke="#141414" stroke-width="2" stroke-miterlimit="10" opacity="1" pathLength="1" stroke-dashoffset="0px" stroke-dasharray="1px 1px"/>
  </g>
  <defs>
    <clipPath id="clip0_33_120">
      <rect width="1326.45" height="2166.45" fill="white" transform="translate(979.662 -316) rotate(46.6221)"/>
    </clipPath>
  </defs>
</svg>
