<svg
                xmlns="http://www.w3.org/2000/svg"
                width="500"
                height="500"
                viewBox="0 0 500 500"
                fill="none"
              >
                <path
                  d="M131.92 120.89C131.92 120.89 83.6499 166.63 92.8599 230.09C102.07 293.55 158.55 342.56 203 383.34C247.45 424.12 310.55 429.72 356.07 398.51C401.59 367.3 377 327.83 402.72 271.56C428.44 215.29 445.21 203.37 431.41 145.14C417.61 86.91 335 50.12 252.77 65.51C170.54 80.9 131.92 120.89 131.92 120.89Z"
                  fill="#012546"
                />
                <path
                  opacity="0.7"
                  d="M131.92 120.89C131.92 120.89 83.6499 166.63 92.8599 230.09C102.07 293.55 158.55 342.56 203 383.34C247.45 424.12 310.55 429.72 356.07 398.51C401.59 367.3 377 327.83 402.72 271.56C428.44 215.29 445.21 203.37 431.41 145.14C417.61 86.91 335 50.12 252.77 65.51C170.54 80.9 131.92 120.89 131.92 120.89Z"
                  fill="white"
                />
                <path
                  d="M339.91 111.11H267.69L268.42 100.58H340.64L339.91 111.11Z"
                  fill="#CCCCCC"
                />
                <path
                  d="M339.91 125.86H267.69L268.42 115.33H340.64L339.91 125.86Z"
                  fill="#CCCCCC"
                />
                <path
                  d="M339.91 140.62H267.69L268.42 130.08H340.64L339.91 140.62Z"
                  fill="#CCCCCC"
                />
                <path
                  d="M339.91 155.37H267.69L268.42 144.83H340.64L339.91 155.37Z"
                  fill="#CCCCCC"
                />
                <path
                  d="M339.91 170.12H267.69L268.42 159.58H340.64L339.91 170.12Z"
                  fill="#CCCCCC"
                />
                <path
                  d="M339.91 184.87H267.69L268.42 174.34H340.64L339.91 184.87Z"
                  fill="#CCCCCC"
                />
                <path
                  d="M339.91 199.62H267.69L268.42 189.09H340.64L339.91 199.62Z"
                  fill="#CCCCCC"
                />
                <path
                  d="M339.91 214.38H267.69L268.42 203.84H340.64L339.91 214.38Z"
                  fill="#CCCCCC"
                />
                <path
                  d="M339.91 229.13H267.69L268.42 218.59H340.64L339.91 229.13Z"
                  fill="#CCCCCC"
                />
                <path
                  d="M339.91 243.88H267.69L268.42 233.34H340.64L339.91 243.88Z"
                  fill="#CCCCCC"
                />
                <path
                  d="M339.91 258.63H267.69L268.42 248.09H340.64L339.91 258.63Z"
                  fill="#CCCCCC"
                />
                <path
                  d="M416.28 111.11H344.05L344.78 100.58H417.01L416.28 111.11Z"
                  fill="#CCCCCC"
                />
                <path
                  d="M416.28 125.86H344.05L344.78 115.33H417.01L416.28 125.86Z"
                  fill="#CCCCCC"
                />
                <path
                  d="M416.28 140.62H344.05L344.78 130.08H417.01L416.28 140.62Z"
                  fill="#CCCCCC"
                />
                <path
                  d="M416.28 155.37H344.05L344.78 144.83H417.01L416.28 155.37Z"
                  fill="#CCCCCC"
                />
                <path
                  d="M416.28 170.12H344.05L344.78 159.58H417.01L416.28 170.12Z"
                  fill="#CCCCCC"
                />
                <path
                  d="M416.28 184.87H344.05L344.78 174.34H417.01L416.28 184.87Z"
                  fill="#CCCCCC"
                />
                <path
                  d="M416.28 199.62H344.05L344.78 189.09H417.01L416.28 199.62Z"
                  fill="#CCCCCC"
                />
                <path
                  d="M416.28 214.38H344.05L344.78 203.84H417.01L416.28 214.38Z"
                  fill="#CCCCCC"
                />
                <path
                  d="M416.28 229.13H344.05L344.78 218.59H417.01L416.28 229.13Z"
                  fill="#CCCCCC"
                />
                <path
                  d="M416.28 243.88H344.05L344.78 233.34H417.01L416.28 243.88Z"
                  fill="#CCCCCC"
                />
                <path
                  d="M416.28 258.63H344.05L344.78 248.09H417.01L416.28 258.63Z"
                  fill="#CCCCCC"
                />
                <path
                  d="M257.56 100H108.34V228.02H257.56V100Z"
                  fill="#012546"
                />
                <path
                  d="M250.09 106.4H115.8V221.62H250.09V106.4Z"
                  fill="white"
                />
                <mask
                  id="mask0_2016_6744"
                  style="mask-type:luminance"
                  maskUnits="userSpaceOnUse"
                  x="115"
                  y="106"
                  width="136"
                  height="116"
                >
                  <path
                    d="M250.09 106.4H115.8V221.62H250.09V106.4Z"
                    fill="white"
                  />
                </mask>
                <g mask="url(#mask0_2016_6744)">
                  <path
                    d="M250.09 141.33C225.94 158.51 191.35 169.91 151.22 187.82C138.575 193.372 126.676 200.488 115.8 209V221.63H250.09V141.33Z"
                    fill="#012546"
                  />
                  <path
                    d="M250.09 106.4H196.2C190.2 111.53 183.11 117.26 174.73 123.4C144.06 145.89 157.35 168.4 194.16 152.02C213.05 143.63 234.08 124.2 250.09 107.27V106.4Z"
                    fill="#012546"
                  />
                  <path
                    d="M139 119.32C139 109.93 127.31 117.32 115.85 126.76V150.47C127 139.53 139 127.72 139 119.32Z"
                    fill="#012546"
                  />
                  <path
                    d="M150.2 156.64C150.2 158.764 149.57 160.841 148.39 162.607C147.21 164.373 145.532 165.749 143.57 166.562C141.608 167.375 139.448 167.588 137.365 167.174C135.281 166.759 133.368 165.736 131.866 164.234C130.364 162.732 129.341 160.819 128.926 158.735C128.512 156.652 128.725 154.492 129.538 152.53C130.35 150.567 131.727 148.89 133.493 147.71C135.259 146.53 137.336 145.9 139.46 145.9C142.308 145.9 145.04 147.031 147.054 149.046C149.068 151.06 150.2 153.791 150.2 156.64Z"
                    fill="#012546"
                  />
                  <path
                    opacity="0.75"
                    d="M250.09 141.33C225.94 158.51 191.35 169.91 151.22 187.82C138.575 193.372 126.676 200.488 115.8 209V221.63H250.09V141.33Z"
                    fill="white"
                  />
                  <path
                    opacity="0.75"
                    d="M250.09 106.4H196.2C190.2 111.53 183.11 117.26 174.73 123.4C144.06 145.89 157.35 168.4 194.16 152.02C213.05 143.63 234.08 124.2 250.09 107.27V106.4Z"
                    fill="white"
                  />
                  <g opacity="0.75">
                    <path
                      d="M139 119.32C139 109.93 127.31 117.32 115.85 126.76V150.47C127 139.53 139 127.72 139 119.32Z"
                      fill="white"
                    />
                  </g>
                  <path
                    opacity="0.75"
                    d="M150.2 156.64C150.2 158.764 149.57 160.841 148.39 162.607C147.21 164.373 145.532 165.749 143.57 166.562C141.608 167.375 139.448 167.588 137.365 167.174C135.281 166.759 133.368 165.736 131.866 164.234C130.364 162.732 129.341 160.819 128.926 158.735C128.512 156.652 128.725 154.492 129.538 152.53C130.35 150.567 131.727 148.89 133.493 147.71C135.259 146.53 137.336 145.9 139.46 145.9C142.308 145.9 145.04 147.031 147.054 149.046C149.068 151.06 150.2 153.791 150.2 156.64Z"
                    fill="white"
                  />
                </g>
                <path
                  d="M226.88 190.89C226.88 193.723 226.04 196.492 224.466 198.847C222.892 201.202 220.655 203.037 218.038 204.121C215.42 205.205 212.541 205.488 209.763 204.934C206.985 204.381 204.433 203.016 202.431 201.012C200.428 199.009 199.065 196.456 198.514 193.678C197.963 190.899 198.248 188.02 199.333 185.403C200.418 182.787 202.255 180.551 204.612 178.979C206.968 177.406 209.737 176.568 212.57 176.57C214.45 176.57 216.312 176.941 218.049 177.66C219.785 178.38 221.363 179.435 222.692 180.765C224.021 182.095 225.075 183.673 225.794 185.411C226.512 187.148 226.881 189.01 226.88 190.89Z"
                  fill="white"
                />
                <path
                  d="M428.74 363.88C426.144 366.89 424.392 370.534 423.66 374.44L413.47 380.15V353.15L413.67 353.42L429.9 341.54C431.95 341.86 439.83 342.76 447.01 338.89C455.35 334.4 461.44 319.02 461.44 319.02C461.44 319.02 441.56 316.77 434.83 325.11C429.37 331.87 429.18 338.42 429.31 340.65L413.47 352.24V332.29C416.436 330.909 419.059 328.885 421.146 326.365C423.234 323.845 424.735 320.892 425.54 317.72C428.42 306.5 413.04 284.39 413.04 284.39C413.04 284.39 397.04 307.15 400.21 318.69C402.93 328.46 410.21 331.56 412.4 332.28V375.53L401 366C401.26 363.72 401.47 356.59 395.12 349.45C387.42 340.79 366.91 341.45 366.91 341.45C366.91 341.45 375.56 358.76 382.91 364.53C389.35 369.53 398.24 367.53 400.38 366.92L412.38 376.92V390.07H394.53L401.82 435.63H423.69L431 390.08H413.47V381.38L424.67 375.1C427.39 375.86 435 377.42 442.2 373.82C451.2 369.33 458.55 359.71 458.55 359.71C458.55 359.71 437.08 354.26 428.74 363.88Z"
                  fill="#012546"
                />
                <path
                  opacity="0.5"
                  d="M428.74 363.88C426.144 366.89 424.392 370.534 423.66 374.44L413.47 380.15V353.15L413.67 353.42L429.9 341.54C431.95 341.86 439.83 342.76 447.01 338.89C455.35 334.4 461.44 319.02 461.44 319.02C461.44 319.02 441.56 316.77 434.83 325.11C429.37 331.87 429.18 338.42 429.31 340.65L413.47 352.24V332.29C416.436 330.909 419.059 328.885 421.146 326.365C423.234 323.845 424.735 320.892 425.54 317.72C428.42 306.5 413.04 284.39 413.04 284.39C413.04 284.39 397.04 307.15 400.21 318.69C402.93 328.46 410.21 331.56 412.4 332.28V375.53L401 366C401.26 363.72 401.47 356.59 395.12 349.45C387.42 340.79 366.91 341.45 366.91 341.45C366.91 341.45 375.56 358.76 382.91 364.53C389.35 369.53 398.24 367.53 400.38 366.92L412.38 376.92V390.07H394.53L401.82 435.63H423.69L431 390.08H413.47V381.38L424.67 375.1C427.39 375.86 435 377.42 442.2 373.82C451.2 369.33 458.55 359.71 458.55 359.71C458.55 359.71 437.08 354.26 428.74 363.88Z"
                  fill="white"
                />
                <path
                  d="M408.53 226.23L379.1 226.48C379.1 226.48 377.1 226.23 376.67 227.69C376.67 227.69 371.56 240.59 371.32 245.21C371.08 249.83 372.32 249.1 370.32 255.21C368.32 261.32 362.78 275.64 359.62 287.32C355.37 303.01 354.26 319.67 353.99 335.87C353.99 338.47 352.39 360.87 356.44 360.87C359.8 360.87 390.77 364.98 391.14 359.01C392.63 335.21 388.33 311.96 396.59 288.82C399.8 279.82 403.48 270.34 406.21 260.94C408.94 251.54 409.41 241.76 411.21 232.14C412.42 225.5 408.53 226.23 408.53 226.23Z"
                  fill="#263238"
                />
                <path
                  d="M411.42 229.15C411.13 225.75 408.53 226.23 408.53 226.23L379.1 226.48C379.1 226.48 377.1 226.23 376.67 227.69C376.67 227.69 371.56 240.59 371.32 245.21C371.248 246.431 371.281 247.655 371.42 248.87L372.04 249.87C372.04 249.87 373.04 258.38 384.69 258.87C396.34 259.36 402.94 254 405.37 248.87C407.8 243.74 408.78 235.49 410.72 230.62C410.929 230.119 411.162 229.628 411.42 229.15Z"
                  fill="#012546"
                />
                <path
                  d="M404.59 238.65C402.59 245.76 403.8 247.73 401.83 259.97C399.86 272.21 392.75 285.97 389.98 298.66C387.21 311.35 388.41 355.9 388.8 357.88C388.955 358.929 389.012 359.99 388.97 361.05C390.3 360.55 391.1 359.87 391.16 358.94C392.65 335.14 388.35 311.89 396.61 288.75C399.82 279.75 403.5 270.27 406.23 260.87C408.96 251.47 409.43 241.69 411.23 232.07C411.98 228.07 410.8 226.76 409.77 226.37C407.534 230.229 405.793 234.355 404.59 238.65Z"
                  fill="#012546"
                />
                <path
                  d="M347.74 418.28L347.54 418.12V390.64H351.49V373.27H336.89V390.64H340.83V418.59L305.89 429.73V432.49C305.89 433.328 306.223 434.132 306.816 434.724C307.408 435.317 308.212 435.65 309.05 435.65C309.888 435.65 310.692 435.317 311.285 434.724C311.877 434.132 312.21 433.328 312.21 432.49V432.1L341.43 428.7V432.89C341.43 433.622 341.721 434.324 342.238 434.842C342.756 435.359 343.458 435.65 344.19 435.65C344.922 435.65 345.624 435.359 346.142 434.842C346.659 434.324 346.95 433.622 346.95 432.89V428.56L377.35 432.1V432.49C377.35 433.328 377.683 434.132 378.276 434.724C378.868 435.317 379.672 435.65 380.51 435.65C381.348 435.65 382.152 435.317 382.745 434.724C383.337 434.132 383.67 433.328 383.67 432.49V429.73L347.74 418.28Z"
                  fill="#263238"
                />
                <path
                  d="M389.4 356.33H302.63C300.421 356.33 298.63 358.121 298.63 360.33V372.48C298.63 374.689 300.421 376.48 302.63 376.48H389.4C391.609 376.48 393.4 374.689 393.4 372.48V360.33C393.4 358.121 391.609 356.33 389.4 356.33Z"
                  fill="#263238"
                />
                <path
                  d="M47.8401 226.23L77.2701 226.48C77.2701 226.48 79.2701 226.23 79.7101 227.69C79.7101 227.69 84.8201 240.59 85.0601 245.21C85.3001 249.83 84.0601 249.1 86.0601 255.21C88.0601 261.32 93.6001 275.64 96.7601 287.32C101.02 303.01 102.12 319.67 102.39 335.87C102.39 338.47 103.99 360.87 99.9401 360.87C96.5901 360.87 65.6201 364.98 65.2401 359.01C63.7601 335.21 68.0501 311.96 59.7901 288.82C56.5801 279.82 52.9001 270.34 50.1801 260.94C47.4601 251.54 46.9801 241.76 45.1801 232.14C44.0001 225.5 47.8401 226.23 47.8401 226.23Z"
                  fill="#263238"
                />
                <path
                  d="M45 229.15C45.29 225.75 47.88 226.23 47.88 226.23L77.31 226.48C77.31 226.48 79.31 226.23 79.75 227.69C79.75 227.69 84.86 240.59 85.1 245.21C85.1651 246.431 85.1283 247.655 84.99 248.87L84.37 249.87C84.37 249.87 83.37 258.38 71.72 258.87C60.07 259.36 53.44 254 51 248.86C48.56 243.72 47.6 235.48 45.65 230.61C45.4618 230.111 45.2448 229.624 45 229.15Z"
                  fill="#012546"
                />
                <path
                  d="M51.78 238.65C53.78 245.76 52.57 247.73 54.54 259.97C56.51 272.21 63.63 285.97 66.39 298.66C69.15 311.35 68 355.9 67.57 357.88C67.4201 358.93 67.3632 359.99 67.4 361.05C66.08 360.55 65.27 359.87 65.21 358.94C63.73 335.14 68.02 311.89 59.76 288.75C56.55 279.75 52.87 270.27 50.15 260.87C47.43 251.47 46.95 241.69 45.15 232.07C44.41 228.07 45.59 226.76 46.61 226.37C48.8479 230.227 50.5852 234.354 51.78 238.65Z"
                  fill="#012546"
                />
                <path
                  d="M108.63 418.28L108.83 418.12V390.64H104.83V373.27H119.44V390.64H115.49V418.59L150.43 429.73V432.49C150.43 433.328 150.097 434.132 149.505 434.724C148.912 435.317 148.108 435.65 147.27 435.65C146.432 435.65 145.628 435.317 145.036 434.724C144.443 434.132 144.11 433.328 144.11 432.49V432.1L115 428.7V432.89C114.958 433.595 114.648 434.256 114.134 434.74C113.62 435.224 112.941 435.494 112.235 435.494C111.529 435.494 110.85 435.224 110.336 434.74C109.822 434.256 109.512 433.595 109.47 432.89V428.56L79.0001 432.1V432.49C79.0242 432.919 78.9606 433.349 78.8129 433.753C78.6653 434.157 78.4368 434.526 78.1415 434.838C77.8461 435.151 77.4901 435.4 77.0953 435.57C76.7004 435.74 76.275 435.828 75.8451 435.828C75.4151 435.828 74.9897 435.74 74.5948 435.57C74.2 435.4 73.844 435.151 73.5486 434.838C73.2533 434.526 73.0248 434.157 72.8772 433.753C72.7296 433.349 72.6659 432.919 72.6901 432.49V429.73L108.63 418.28Z"
                  fill="#263238"
                />
                <path
                  d="M66.97 376.47H153.74C155.949 376.47 157.74 374.679 157.74 372.47V360.32C157.74 358.111 155.949 356.32 153.74 356.32H66.97C64.7608 356.32 62.97 358.111 62.97 360.32V372.47C62.97 374.679 64.7608 376.47 66.97 376.47Z"
                  fill="#263238"
                />
                <path d="M372 299.74H134.4V436.3H372V299.74Z" fill="#CCCCCC" />
                <path
                  d="M371.82 303.02H134.52V306.8H371.82V303.02Z"
                  fill="#263238"
                />
                <path
                  d="M373.76 297.5H129.11V303.47H373.76V297.5Z"
                  fill="#CCCCCC"
                />
                <path
                  d="M197.66 285.64C197.66 285.64 200.46 298.15 200.3 301.64C200.14 305.13 193.55 314.48 193.38 312.34C193.436 310.527 193.829 308.739 194.54 307.07C194.54 307.07 192.23 310.2 191.41 310.07C190.59 309.94 192.07 305.62 192.07 305.62C192.07 305.62 189.6 308.09 188.77 307.62C187.94 307.15 190.58 303.5 190.58 303.5C190.58 303.5 187.58 306.63 187.46 305.64C187.34 304.65 190.09 300.54 190.09 300.54C190.09 300.54 187.29 294.61 187.09 292.14C187.108 290.415 187.683 288.742 188.73 287.37L197.66 285.64Z"
                  fill="white"
                />
                <mask
                  id="mask1_2016_6744"
                  style="mask-type:luminance"
                  maskUnits="userSpaceOnUse"
                  x="187"
                  y="285"
                  width="14"
                  height="28"
                >
                  <path
                    d="M197.66 285.64C197.66 285.64 200.46 298.15 200.3 301.64C200.14 305.13 193.55 314.48 193.38 312.34C193.436 310.527 193.829 308.739 194.54 307.07C194.54 307.07 192.23 310.2 191.41 310.07C190.59 309.94 192.07 305.62 192.07 305.62C192.07 305.62 189.6 308.09 188.77 307.62C187.94 307.15 190.58 303.5 190.58 303.5C190.58 303.5 187.58 306.63 187.46 305.64C187.34 304.65 190.09 300.54 190.09 300.54C190.09 300.54 187.29 294.61 187.09 292.14C187.108 290.415 187.683 288.742 188.73 287.37L197.66 285.64Z"
                    fill="white"
                  />
                </mask>
                <g mask="url(#mask1_2016_6744)">
                  <path
                    d="M197.66 285.64C197.66 285.64 200.46 298.15 200.3 301.64C200.14 305.13 193.55 314.48 193.38 312.34C193.436 310.527 193.829 308.739 194.54 307.07C194.54 307.07 192.23 310.2 191.41 310.07C190.59 309.94 192.07 305.62 192.07 305.62C192.07 305.62 189.6 308.09 188.77 307.62C187.94 307.15 190.58 303.5 190.58 303.5C190.58 303.5 187.58 306.63 187.46 305.64C187.34 304.65 190.09 300.54 190.09 300.54C190.09 300.54 187.29 294.61 187.09 292.14C187.108 290.415 187.683 288.742 188.73 287.37L197.66 285.64Z"
                    fill="#D9D9D9"
                  />
                </g>
                <path
                  d="M197.66 285.64C197.66 285.64 200.46 298.15 200.3 301.64C200.14 305.13 193.55 314.48 193.38 312.34C193.436 310.527 193.829 308.739 194.54 307.07C194.54 307.07 192.23 310.2 191.41 310.07C190.59 309.94 192.07 305.62 192.07 305.62C192.07 305.62 189.6 308.09 188.77 307.62C187.94 307.15 190.58 303.5 190.58 303.5C190.58 303.5 187.58 306.63 187.46 305.64C187.34 304.65 190.09 300.54 190.09 300.54C190.09 300.54 187.29 294.61 187.09 292.14C187.108 290.415 187.683 288.742 188.73 287.37L197.66 285.64Z"
                  stroke="#263238"
                  stroke-linecap="round"
                  stroke-linejoin="round"
                />
                <path
                  d="M197 285.64C197 285.64 199 294.37 198.82 296.84C198.64 299.31 196.18 306.55 194.37 305.23C192.56 303.91 195.52 298.98 195.52 298.98C195.52 298.98 190.44 295.41 189.27 292.06C188.1 288.71 188.77 287.29 188.77 287.29L197 285.64Z"
                  fill="white"
                />
                <mask
                  id="mask2_2016_6744"
                  style="mask-type:luminance"
                  maskUnits="userSpaceOnUse"
                  x="188"
                  y="285"
                  width="11"
                  height="21"
                >
                  <path
                    d="M197 285.64C197 285.64 199 294.37 198.82 296.84C198.64 299.31 196.18 306.55 194.37 305.23C192.56 303.91 195.52 298.98 195.52 298.98C195.52 298.98 190.44 295.41 189.27 292.06C188.1 288.71 188.77 287.29 188.77 287.29L197 285.64Z"
                    fill="white"
                  />
                </mask>
                <g mask="url(#mask2_2016_6744)">
                  <path
                    d="M197 285.64C197 285.64 199 294.37 198.82 296.84C198.64 299.31 196.18 306.55 194.37 305.23C192.56 303.91 195.52 298.98 195.52 298.98C195.52 298.98 190.44 295.41 189.27 292.06C188.1 288.71 188.77 287.29 188.77 287.29L197 285.64Z"
                    fill="#D9D9D9"
                  />
                </g>
                <path
                  d="M197 285.64C197 285.64 199 294.37 198.82 296.84C198.64 299.31 196.18 306.55 194.37 305.23C192.56 303.91 195.52 298.98 195.52 298.98C195.52 298.98 190.44 295.41 189.27 292.06C188.1 288.71 188.77 287.29 188.77 287.29L197 285.64Z"
                  stroke="#263238"
                  stroke-linecap="round"
                  stroke-linejoin="round"
                />
                <path
                  d="M190.97 244.73L197.98 286.48L188.1 288.71L178.22 256.52L190.97 244.73Z"
                  fill="#263238"
                  stroke="#263238"
                  stroke-linecap="round"
                  stroke-linejoin="round"
                />
                <path
                  d="M188.1 265.13C188.1 265.13 188.74 314.85 189.69 328.24C190.64 341.63 187.14 359.48 183.96 364.58C180.78 369.68 166.74 401.58 167.38 403.47C168.02 405.36 170.89 411.12 170.89 412.71V419.4C170.89 419.4 186.82 429.92 188.1 429.92C189.38 429.92 190.97 432.47 187.78 434.39C184.59 436.31 148.89 436.3 147.3 435.02C146.251 434.079 145.48 432.868 145.07 431.52C145.07 431.52 139.97 433.43 140.29 428.65C140.61 423.87 146.34 403.47 146.34 403.47C146.34 403.47 142.84 381.15 144.11 366.81C145.38 352.47 149.85 335.25 149.85 331.75C149.85 328.25 145.39 304.97 144.75 301.15C144.11 297.33 134.87 286.48 139.01 277.88C143.15 269.28 146.34 255.56 147.62 254.61C148.9 253.66 166.11 253.01 173.12 254.61C180.13 256.21 187.78 256.2 188.1 265.13Z"
                  fill="#263238"
                  stroke="#263238"
                  stroke-linecap="round"
                  stroke-linejoin="round"
                />
                <path
                  d="M156.5 164.91C156.5 164.91 151.05 169.79 150.11 171.48C149.17 173.17 137.73 189.48 137.54 201.14C137.35 212.8 146 248.06 146 248.06L133 281.13L136.76 282.63L140.51 278.5V284.7C140.51 284.7 144.83 288.64 156.09 292.39C167.35 296.14 181.81 291.83 181.81 291.83L186.12 264.39V291.46L191.19 288.08L191.6 243C191.6 243 195.73 218.79 195.73 212C195.73 205.21 184.28 184 179.21 177.84C174.14 171.68 165.69 166.58 163.21 164.7C160.73 162.82 156.5 164.91 156.5 164.91Z"
                  fill="#263238"
                />
                <mask
                  id="mask3_2016_6744"
                  style="mask-type:luminance"
                  maskUnits="userSpaceOnUse"
                  x="133"
                  y="163"
                  width="63"
                  height="131"
                >
                  <path
                    d="M156.5 164.91C156.5 164.91 151.05 169.79 150.11 171.48C149.17 173.17 137.73 189.48 137.54 201.14C137.35 212.8 146 248.06 146 248.06L133 281.13L136.76 282.63L140.51 278.5V284.7C140.51 284.7 144.83 288.64 156.09 292.39C167.35 296.14 181.81 291.83 181.81 291.83L186.12 264.39V291.46L191.19 288.08L191.6 243C191.6 243 195.73 218.79 195.73 212C195.73 205.21 184.28 184 179.21 177.84C174.14 171.68 165.69 166.58 163.21 164.7C160.73 162.82 156.5 164.91 156.5 164.91Z"
                    fill="white"
                  />
                </mask>
                <g mask="url(#mask3_2016_6744)">
                  <path
                    opacity="0.17"
                    d="M156.5 164.91C156.5 164.91 151.05 169.79 150.11 171.48C149.17 173.17 137.73 189.48 137.54 201.14C137.35 212.8 146 248.06 146 248.06L133 281.13L136.76 282.63L140.51 278.5V284.7C140.51 284.7 144.83 288.64 156.09 292.39C167.35 296.14 181.81 291.83 181.81 291.83L186.12 264.39V291.46L191.19 288.08L191.6 243C191.6 243 195.73 218.79 195.73 212C195.73 205.21 184.28 184 179.21 177.84C174.14 171.68 165.69 166.58 163.21 164.7C160.73 162.82 156.5 164.91 156.5 164.91Z"
                    fill="white"
                  />
                  <path
                    d="M140.46 204.88C140.46 204.88 147.28 209.71 151.82 211.41"
                    stroke="#263238"
                    stroke-linecap="round"
                    stroke-linejoin="round"
                  />
                  <path
                    d="M142.45 210C142.45 210 150.12 212 154.09 212"
                    stroke="#263238"
                    stroke-linecap="round"
                    stroke-linejoin="round"
                  />
                  <path
                    d="M153.53 255.42L175.11 257.98L173.69 262.52L153.81 260.25"
                    stroke="#263238"
                    stroke-linecap="round"
                    stroke-linejoin="round"
                  />
                </g>
                <path
                  d="M156.5 164.91C156.5 164.91 151.05 169.79 150.11 171.48C149.17 173.17 137.73 189.48 137.54 201.14C137.35 212.8 146 248.06 146 248.06L133 281.13L136.76 282.63L140.51 278.5V284.7C140.51 284.7 144.83 288.64 156.09 292.39C167.35 296.14 181.81 291.83 181.81 291.83L186.12 264.39V291.46L191.19 288.08L191.6 243C191.6 243 195.73 218.79 195.73 212C195.73 205.21 184.28 184 179.21 177.84C174.14 171.68 165.69 166.58 163.21 164.7C160.73 162.82 156.5 164.91 156.5 164.91Z"
                  stroke="#263238"
                  stroke-linecap="round"
                  stroke-linejoin="round"
                />
                <path
                  d="M155.37 166L176.21 188.53L188.41 211.81C188.41 211.81 185.78 194.54 183.53 189.81C181.28 185.08 171.14 173.36 170 170.73C168.86 168.1 155.37 166 155.37 166Z"
                  fill="white"
                  stroke="#263238"
                  stroke-linecap="round"
                  stroke-linejoin="round"
                />
                <path
                  d="M182.64 200.83L188.41 211.83C188.41 211.83 186.62 200.06 184.72 193.31L183.53 189.86C181.933 187.058 180.121 184.383 178.11 181.86L174.84 181.21L176.21 188.57L180.43 192.02L182.64 200.83Z"
                  fill="#263238"
                  stroke="#263238"
                  stroke-linecap="round"
                  stroke-linejoin="round"
                />
                <path
                  d="M177.08 174.49L178.16 175.74L181.55 179.74L183.55 189.9L174.86 181.23C174.86 181.23 176 176 177.08 174.49Z"
                  fill="white"
                  stroke="#263238"
                  stroke-linecap="round"
                  stroke-linejoin="round"
                />
                <path
                  d="M186.91 132.62C186.91 132.62 191.47 136.12 192.04 139.5C192.61 142.88 190.91 146.64 191.1 147.95C191.29 149.26 194.66 152.27 194.48 153.77C194.3 155.27 191.48 155.83 191.48 155.83C191.48 155.83 188.42 166.97 187.67 168.83C186.92 170.69 183.16 170.14 180.35 169.77L175.28 184.77L158.56 165.1L161.19 157.21C161.19 157.21 154.06 148.58 153.49 139.38C152.92 130.18 160.25 123.8 170.76 122.49C181.27 121.18 190.1 126.24 191.22 128.31C192.34 130.38 186.91 132.62 186.91 132.62Z"
                  fill="white"
                />
                <mask
                  id="mask4_2016_6744"
                  style="mask-type:luminance"
                  maskUnits="userSpaceOnUse"
                  x="153"
                  y="122"
                  width="42"
                  height="63"
                >
                  <path
                    d="M186.91 132.62C186.91 132.62 191.47 136.12 192.04 139.5C192.61 142.88 190.91 146.64 191.1 147.95C191.29 149.26 194.66 152.27 194.48 153.77C194.3 155.27 191.48 155.83 191.48 155.83C191.48 155.83 188.42 166.97 187.67 168.83C186.92 170.69 183.16 170.14 180.35 169.77L175.28 184.77L158.56 165.1L161.19 157.21C161.19 157.21 154.06 148.58 153.49 139.38C152.92 130.18 160.25 123.8 170.76 122.49C181.27 121.18 190.1 126.24 191.22 128.31C192.34 130.38 186.91 132.62 186.91 132.62Z"
                    fill="white"
                  />
                </mask>
                <g mask="url(#mask4_2016_6744)">
                  <path
                    d="M186.91 132.62C186.91 132.62 191.47 136.12 192.04 139.5C192.61 142.88 190.91 146.64 191.1 147.95C191.29 149.26 194.66 152.27 194.48 153.77C194.3 155.27 191.48 155.83 191.48 155.83C191.48 155.83 188.42 166.97 187.67 168.83C186.92 170.69 183.16 170.14 180.35 169.77L175.28 184.77L158.56 165.1L161.19 157.21C161.19 157.21 154.06 148.58 153.49 139.38C152.92 130.18 160.25 123.8 170.76 122.49C181.27 121.18 190.1 126.24 191.22 128.31C192.34 130.38 186.91 132.62 186.91 132.62Z"
                    fill="#D9D9D9"
                  />
                  <path
                    d="M167.43 175.56C170.25 174.99 174.98 174.01 179.24 173.05L180.34 169.79C182.68 170.1 185.68 170.54 187.04 169.59C183.84 168.27 175.92 165.96 174.3 162.99C172.3 159.3 179.3 148.56 179.3 143.19C179.3 137.82 172.59 131.78 172.59 131.78C169.36 128.71 163.47 127.78 158.24 127.78C156.594 129.218 155.305 131.019 154.475 133.041C153.645 135.063 153.298 137.25 153.46 139.43C154.03 148.63 161.16 157.26 161.16 157.26L158.53 165.15L167.43 175.56Z"
                    fill="#B8B8B8"
                  />
                </g>
                <path
                  d="M186.91 132.62C186.91 132.62 191.47 136.12 192.04 139.5C192.61 142.88 190.91 146.64 191.1 147.95C191.29 149.26 194.66 152.27 194.48 153.77C194.3 155.27 191.48 155.83 191.48 155.83C191.48 155.83 188.42 166.97 187.67 168.83C186.92 170.69 183.16 170.14 180.35 169.77L175.28 184.77L158.56 165.1L161.19 157.21C161.19 157.21 154.06 148.58 153.49 139.38C152.92 130.18 160.25 123.8 170.76 122.49C181.27 121.18 190.1 126.24 191.22 128.31C192.34 130.38 186.91 132.62 186.91 132.62Z"
                  stroke="#263238"
                  stroke-linecap="round"
                  stroke-linejoin="round"
                />
                <path
                  d="M186.91 132.62C186.91 132.62 192.35 130.37 191.22 128.31C190.09 126.25 181.27 121.17 170.76 122.49C160.25 123.81 152.93 130.18 153.49 139.38C154.05 148.58 161.19 157.21 161.19 157.21L160.79 158.41C164.68 160.31 168.7 157.21 168.7 157.21C167.966 157.58 167.133 157.707 166.322 157.572C165.512 157.437 164.765 157.048 164.19 156.46C161.94 154.4 161.75 147.83 164.57 147.26C167.39 146.69 169.26 147.83 169.26 149.89C169.26 151.95 169.82 150.64 171.33 150.45C172.84 150.26 171.51 145.76 172.45 145.01C173.97 144.07 175.305 142.86 176.39 141.44C178.08 139.19 173.2 137.32 172.64 135.25C172.08 133.18 186.91 132.62 186.91 132.62Z"
                  fill="#263238"
                  stroke="#263238"
                  stroke-linecap="round"
                  stroke-linejoin="round"
                />
                <path
                  d="M188.25 147.28L184.77 148.44H187.92"
                  stroke="#263238"
                  stroke-linecap="round"
                  stroke-linejoin="round"
                />
                <path
                  d="M189.58 143.8C189.58 143.8 188.09 141.65 186.43 142.64C184.77 143.63 184.61 144.3 184.61 144.3"
                  stroke="#263238"
                  stroke-linecap="round"
                  stroke-linejoin="round"
                />
                <path
                  d="M186 158.88C187.018 159.576 188.261 159.862 189.48 159.68"
                  stroke="#263238"
                  stroke-linecap="round"
                  stroke-linejoin="round"
                />
                <path
                  d="M157.81 161.53L178.83 182.18L176.96 191L154.62 166.97L157.81 161.53Z"
                  fill="white"
                  stroke="#263238"
                  stroke-linecap="round"
                  stroke-linejoin="round"
                />
                <path
                  d="M238.56 240.48C238.56 240.48 231.16 236.08 229.96 236.48C228.76 236.88 217.16 245.28 217.96 247.28C218.76 249.28 224.96 251.88 228.56 253.28C232.16 254.68 239.56 251.68 239.56 251.68L238.56 240.48Z"
                  fill="white"
                  stroke="#263238"
                  stroke-linecap="round"
                  stroke-linejoin="round"
                />
                <path
                  d="M217 238.88C217 238.88 223.4 235.28 224.4 235.28C225.4 235.28 231.2 240.48 231.2 240.48L228.8 244.08C228.8 244.08 236.4 247.88 235.6 249.28C234.8 250.68 231.8 252.88 228.6 253.28C225.4 253.68 216.4 247.88 216.4 247.88L217 238.88Z"
                  fill="white"
                />
                <mask
                  id="mask5_2016_6744"
                  style="mask-type:luminance"
                  maskUnits="userSpaceOnUse"
                  x="216"
                  y="235"
                  width="20"
                  height="19"
                >
                  <path
                    d="M217 238.88C217 238.88 223.4 235.28 224.4 235.28C225.4 235.28 231.2 240.48 231.2 240.48L228.8 244.08C228.8 244.08 236.4 247.88 235.6 249.28C234.8 250.68 231.8 252.88 228.6 253.28C225.4 253.68 216.4 247.88 216.4 247.88L217 238.88Z"
                    fill="white"
                  />
                </mask>
                <g mask="url(#mask5_2016_6744)">
                  <path
                    d="M217 238.88C217 238.88 223.4 235.28 224.4 235.28C225.4 235.28 231.2 240.48 231.2 240.48L228.8 244.08C228.8 244.08 236.4 247.88 235.6 249.28C234.8 250.68 231.8 252.88 228.6 253.28C225.4 253.68 216.4 247.88 216.4 247.88L217 238.88Z"
                    fill="#D9D9D9"
                  />
                </g>
                <path
                  d="M217 238.88C217 238.88 223.4 235.28 224.4 235.28C225.4 235.28 231.2 240.48 231.2 240.48L228.8 244.08C228.8 244.08 236.4 247.88 235.6 249.28C234.8 250.68 231.8 252.88 228.6 253.28C225.4 253.68 216.4 247.88 216.4 247.88L217 238.88Z"
                  stroke="#263238"
                  stroke-linecap="round"
                  stroke-linejoin="round"
                />
                <path
                  d="M212.56 237.28L218.16 238.28L216.36 247.88L211.56 246.28L212.56 237.28Z"
                  fill="white"
                  stroke="#263238"
                  stroke-linecap="round"
                  stroke-linejoin="round"
                />
                <path
                  d="M147.57 181.48C147.57 181.48 142.17 191.88 141.57 197.08C140.97 202.28 162.97 243.68 164.57 245.08C166.17 246.48 212.96 247.88 212.96 247.88L214.96 237.68L174.96 226.28L161.36 184.48"
                  fill="#263238"
                />
                <mask
                  id="mask6_2016_6744"
                  style="mask-type:luminance"
                  maskUnits="userSpaceOnUse"
                  x="141"
                  y="181"
                  width="74"
                  height="67"
                >
                  <path
                    d="M147.57 181.48C147.57 181.48 142.17 191.88 141.57 197.08C140.97 202.28 162.97 243.68 164.57 245.08C166.17 246.48 212.96 247.88 212.96 247.88L214.96 237.68L174.96 226.28L161.36 184.48"
                    fill="white"
                  />
                </mask>
                <g mask="url(#mask6_2016_6744)">
                  <path
                    opacity="0.17"
                    d="M147.57 181.48C147.57 181.48 142.17 191.88 141.57 197.08C140.97 202.28 162.97 243.68 164.57 245.08C166.17 246.48 212.96 247.88 212.96 247.88L214.96 237.68L174.96 226.28L161.36 184.48"
                    fill="white"
                  />
                </g>
                <path
                  d="M147.57 181.48C147.57 181.48 142.17 191.88 141.57 197.08C140.97 202.28 162.97 243.68 164.57 245.08C166.17 246.48 212.96 247.88 212.96 247.88L214.96 237.68L174.96 226.28L161.36 184.48"
                  stroke="#263238"
                  stroke-linecap="round"
                  stroke-linejoin="round"
                />
                <path
                  d="M231.56 237.48C231.56 237.48 228.76 235.08 227.76 237.88C226.76 240.68 220.56 247.48 223.36 247.68C226.16 247.88 231.36 242.08 231.36 242.08"
                  fill="white"
                />
                <path
                  d="M231.56 237.48C231.56 237.48 228.76 235.08 227.76 237.88C226.76 240.68 220.56 247.48 223.36 247.68C226.16 247.88 231.36 242.08 231.36 242.08"
                  stroke="#263238"
                  stroke-linecap="round"
                  stroke-linejoin="round"
                />
                <path
                  d="M219.16 248.68C219.16 248.68 218.44 252.05 220.16 253.48C221.37 254.48 222.05 251.68 221.76 249.68C221.47 247.68 219.76 247.08 219.16 248.68Z"
                  fill="white"
                  stroke="#263238"
                  stroke-linecap="round"
                  stroke-linejoin="round"
                />
                <path
                  d="M222 249.48C222 249.48 221.28 252.85 223 254.28C224.21 255.28 224.89 252.48 224.6 250.48C224.31 248.48 222.56 247.88 222 249.48Z"
                  fill="white"
                  stroke="#263238"
                  stroke-linecap="round"
                  stroke-linejoin="round"
                />
                <path
                  d="M224.76 250.68C224.76 250.68 224.04 254.05 225.76 255.48C226.97 256.48 227.65 253.68 227.36 251.68C227.07 249.68 225.36 249.08 224.76 250.68Z"
                  fill="white"
                  stroke="#263238"
                  stroke-linecap="round"
                  stroke-linejoin="round"
                />
                <path
                  d="M227.53 252.31C227.53 252.31 226.87 254.58 228.45 255.54C229.56 256.22 230.19 254.33 229.92 252.98C229.65 251.63 228.08 251.23 227.53 252.31Z"
                  fill="white"
                  stroke="#263238"
                  stroke-linecap="round"
                  stroke-linejoin="round"
                />
                <path
                  d="M238.56 240.48L239.16 253.28L243.56 252.08L242.56 240.28L238.56 240.48Z"
                  stroke="#263238"
                  stroke-linecap="round"
                  stroke-linejoin="round"
                />
                <path
                  d="M241.56 239.28L243.56 254.48L276.96 250.88L277.76 231.08L241.56 239.28Z"
                  fill="#263238"
                  stroke="#263238"
                  stroke-linecap="round"
                  stroke-linejoin="round"
                />
                <path
                  d="M183 299.87C183 299.87 176.94 340.35 176.94 354.06C176.94 367.77 167.7 390.72 167.38 403.47"
                  stroke="white"
                  stroke-linecap="round"
                  stroke-linejoin="round"
                />
                <path
                  d="M147.3 435C148.89 436.28 184.59 436.28 187.78 434.37C190.97 432.46 189.37 429.9 188.1 429.9C186.83 429.9 170.89 419.38 170.89 419.38C170.89 419.38 162.28 426.08 157.5 427.67C152.72 429.26 145.07 429.58 145.07 429.58V431.5C145.48 432.848 146.251 434.059 147.3 435Z"
                  fill="white"
                  stroke="#263238"
                  stroke-linecap="round"
                  stroke-linejoin="round"
                />
                <path
                  d="M187.78 434.39C189.46 433.39 189.78 432.19 189.58 431.3C184.892 432.227 180.129 432.726 175.35 432.79C165.72 433.05 150.57 432.46 145.35 432.24C145.782 433.315 146.469 434.269 147.35 435.02C148.89 436.3 184.59 436.3 187.78 434.39Z"
                  fill="white"
                  stroke="#263238"
                  stroke-linecap="round"
                  stroke-linejoin="round"
                />
                <path
                  d="M144.14 431.77L145.07 429.6L146.34 403.47C146.34 403.47 140.6 423.87 140.29 428.65C140.05 432.13 142.69 432.06 144.14 431.77Z"
                  fill="#263238"
                  stroke="#263238"
                  stroke-linecap="round"
                  stroke-linejoin="round"
                />
                <path
                  d="M281.81 291.9C281.81 291.9 278.63 339.4 281.81 358.52C284.99 377.64 293 410.8 294.24 414.94C295.021 417.411 295.36 420.001 295.24 422.59L313.09 425.14C313.09 425.14 307.67 362.35 307.67 355.02C307.67 347.69 313.73 292.86 313.73 292.86L281.81 291.9Z"
                  fill="#263238"
                  stroke="#263238"
                  stroke-linecap="round"
                  stroke-linejoin="round"
                />
                <path
                  d="M295.2 422.59C295.2 422.59 275.76 430.88 273.52 432.47C271.28 434.06 278.31 436.3 286.91 436.3C295.51 436.3 304.13 435.3 304.13 435.3L307.63 433.39L307.95 435.62H317.19C317.19 435.62 318.79 427.97 318.19 426.06C317.736 424.753 317.205 423.474 316.6 422.23L295.2 422.59Z"
                  fill="#263238"
                  stroke="#263238"
                  stroke-linecap="round"
                  stroke-linejoin="round"
                />
                <path
                  d="M278.94 288.08C278.94 288.08 280.54 333.66 284.36 349.92C288.18 366.18 294.88 405.7 294.88 409.84C294.905 412.207 294.585 414.565 293.93 416.84L292.65 421C292.868 421.993 293.204 422.956 293.65 423.87C293.65 423.87 301.93 425.78 307.35 425.78C310.738 425.75 314.104 425.241 317.35 424.27C317.35 424.27 317.52 414.27 317.84 409.52C318.16 404.77 316.57 374.14 316.57 366.81C316.57 359.48 314.65 355.33 314.65 346.41C314.65 337.49 313.06 313.58 313.38 309.75C313.7 305.92 318.16 301.75 319.12 297C320.08 292.25 321.03 287.12 321.03 287.12L278.94 288.08Z"
                  fill="#263238"
                  stroke="#263238"
                  stroke-linecap="round"
                  stroke-linejoin="round"
                />
                <path
                  d="M282.76 336C282.76 336 291.67 397.81 293.9 401.71C295.23 404.199 295.587 407.093 294.9 409.83"
                  stroke="white"
                  stroke-linecap="round"
                  stroke-linejoin="round"
                />
                <path
                  d="M271.29 252.06C271.29 252.06 270.1 264.25 270.1 273.57C270.1 278.77 270.05 285.57 270 290.49C269.986 292.515 270.677 294.481 271.954 296.052C273.231 297.623 275.015 298.701 277 299.1C279.094 299.56 281.227 299.818 283.37 299.87L275.88 253.49C275.88 253.49 272.49 247.76 271.29 252.06Z"
                  fill="#263238"
                  stroke="#263238"
                  stroke-linecap="round"
                  stroke-linejoin="round"
                />
                <path
                  d="M306.68 169C308.506 169.961 310.172 171.199 311.62 172.67C312.896 174.348 314.027 176.131 315 178C315 178 328.55 193.62 328.87 195.21C329.19 196.8 321.22 247.01 321.22 247.01L330.3 294.5C330.3 294.5 315.64 302.63 304.48 303.11C296.63 303.45 284.82 300.94 278.48 299.42C277.218 299.121 276.083 298.433 275.234 297.453C274.385 296.473 273.866 295.251 273.75 293.96C273.13 287.28 271.97 273.96 271.29 261.35C270.51 246.7 272.73 217.68 274.29 207.48C275.85 197.28 280.83 183.42 284.65 177.68C288.47 171.94 299 166 306.68 169Z"
                  fill="#263238"
                  stroke="#263238"
                  stroke-linecap="round"
                  stroke-linejoin="round"
                />
                <path
                  d="M315 178C314.036 176.156 312.919 174.397 311.66 172.74C310.213 171.269 308.546 170.031 306.72 169.07C300.36 166.56 292.04 170.2 287.21 174.8C286.57 176.22 281.53 187.72 279.14 197.12C276.59 207.12 276.91 219.76 276.91 219.76C276.91 219.76 285.36 208.92 296.83 196.17C302.557 189.797 308.813 183.92 315.53 178.6L315 178Z"
                  fill="#263238"
                />
                <mask
                  id="mask7_2016_6744"
                  style="mask-type:luminance"
                  maskUnits="userSpaceOnUse"
                  x="276"
                  y="168"
                  width="40"
                  height="52"
                >
                  <path
                    d="M315 178C314.036 176.156 312.919 174.397 311.66 172.74C310.213 171.269 308.546 170.031 306.72 169.07C300.36 166.56 292.04 170.2 287.21 174.8C286.57 176.22 281.53 187.72 279.14 197.12C276.59 207.12 276.91 219.76 276.91 219.76C276.91 219.76 285.36 208.92 296.83 196.17C302.557 189.797 308.813 183.92 315.53 178.6L315 178Z"
                    fill="white"
                  />
                </mask>
                <g mask="url(#mask7_2016_6744)">
                  <path
                    opacity="0.17"
                    d="M315 178C314.036 176.156 312.919 174.397 311.66 172.74C310.213 171.269 308.546 170.031 306.72 169.07C300.36 166.56 292.04 170.2 287.21 174.8C286.57 176.22 281.53 187.72 279.14 197.12C276.59 207.12 276.91 219.76 276.91 219.76C276.91 219.76 285.36 208.92 296.83 196.17C302.557 189.797 308.813 183.92 315.53 178.6L315 178Z"
                    fill="white"
                  />
                </g>
                <path
                  d="M315 178C314.036 176.156 312.919 174.397 311.66 172.74C310.213 171.269 308.546 170.031 306.72 169.07C300.36 166.56 292.04 170.2 287.21 174.8C286.57 176.22 281.53 187.72 279.14 197.12C276.59 207.12 276.91 219.76 276.91 219.76C276.91 219.76 285.36 208.92 296.83 196.17C302.557 189.797 308.813 183.92 315.53 178.6L315 178Z"
                  stroke="#263238"
                  stroke-linecap="round"
                  stroke-linejoin="round"
                />
                <path
                  d="M286.12 182.13C286.12 182.13 281.81 195.64 280.5 199.46C279.19 203.28 279.06 209.27 279.06 209.27C279.06 209.27 295.2 185.12 299.14 181.06C303.08 177 308.23 170.66 308.23 170.66L304.76 169.66L286.12 182.13Z"
                  fill="white"
                  stroke="#263238"
                  stroke-linecap="round"
                  stroke-linejoin="round"
                />
                <path
                  d="M287.31 177.23C287.31 177.23 285.4 182.85 285.4 183.23C285.4 183.61 284.92 188.97 284.92 188.97L291.73 179.76L287.31 177.23Z"
                  fill="white"
                  stroke="#263238"
                  stroke-linecap="round"
                  stroke-linejoin="round"
                />
                <path
                  d="M304.64 166L286 181.18L288.87 189.54L307.99 170.06L304.64 166Z"
                  fill="white"
                  stroke="#263238"
                  stroke-linecap="round"
                  stroke-linejoin="round"
                />
                <path
                  d="M302.23 286.4C302.23 286.4 299.58 292.99 298.79 295.15C298 297.31 298.4 305.77 298.5 306.66C298.6 307.55 300.17 307.74 300.17 307.74C300.17 307.74 300.66 314.52 301.25 314.74C301.863 314.893 302.489 314.99 303.12 315.03C303.12 315.03 304.2 318.48 305.58 318.18C305.995 318.054 306.364 317.81 306.642 317.478C306.921 317.146 307.097 316.74 307.15 316.31C307.604 316.353 308.06 316.275 308.474 316.086C308.889 315.896 309.246 315.601 309.51 315.23C310.072 314.404 310.535 313.514 310.89 312.58C310.89 312.58 313.25 311.4 313.44 310.51C313.63 309.62 314.23 306.51 314.23 306.51C314.23 306.51 314.92 306.31 314.92 304.25C314.92 302.19 313.35 289.5 313.35 289.5L302.23 286.4Z"
                  fill="white"
                  stroke="#263238"
                  stroke-linecap="round"
                  stroke-linejoin="round"
                />
                <path
                  d="M300.17 307.74L300.46 301.76"
                  stroke="#263238"
                  stroke-linecap="round"
                  stroke-linejoin="round"
                />
                <path
                  d="M303.12 315.01L303.76 306.16"
                  stroke="#263238"
                  stroke-linecap="round"
                  stroke-linejoin="round"
                />
                <path
                  d="M307.15 316.29L307.61 306.71"
                  stroke="#263238"
                  stroke-linecap="round"
                  stroke-linejoin="round"
                />
                <path
                  d="M310.89 312.56L311.46 305.89"
                  stroke="#263238"
                  stroke-linecap="round"
                  stroke-linejoin="round"
                />
                <path
                  d="M321.66 190.86L328.83 195.16L326.44 244.73L313.69 291.58L301.58 288.4L305.4 251.4L303.49 214.11C303.49 214.11 306.2 205.42 312.41 200.64"
                  fill="#263238"
                />
                <path
                  d="M321.66 190.86L328.83 195.16L326.44 244.73L313.69 291.58L301.58 288.4L305.4 251.4L303.49 214.11C303.49 214.11 306.2 205.42 312.41 200.64"
                  stroke="#263238"
                  stroke-linecap="round"
                  stroke-linejoin="round"
                />
                <path
                  d="M306.91 199.23C306.91 199.23 303.65 207.51 303.49 214.13"
                  stroke="white"
                  stroke-linecap="round"
                  stroke-linejoin="round"
                />
                <path
                  d="M309.63 203.17C309.63 203.17 304.05 212.28 304.05 216.4C304.05 220.52 305.52 254.9 305.52 254.9L301.7 284.58"
                  stroke="white"
                  stroke-linecap="round"
                  stroke-linejoin="round"
                />
                <path
                  d="M275 135.63C275 135.63 271.17 146.51 271.53 148.07C271.89 149.63 272.25 152.01 272.25 152.01C272.25 152.01 266.25 159.42 266.99 160.26C267.73 161.1 271.05 162.05 271.05 162.05C271.05 162.05 273.8 173.53 274.88 174.6C275.96 175.67 282.65 173.29 282.65 173.29L289.82 182.37L304.52 168.27L302.73 160.86C302.73 160.86 310.5 147.23 310.38 140.77C310.26 134.31 297 125.71 287.55 125.83C278.1 125.95 269.26 129.42 271.05 131.93C272.104 133.417 273.448 134.675 275 135.63Z"
                  fill="white"
                />
                <mask
                  id="mask8_2016_6744"
                  style="mask-type:luminance"
                  maskUnits="userSpaceOnUse"
                  x="266"
                  y="125"
                  width="45"
                  height="58"
                >
                  <path
                    d="M275 135.63C275 135.63 271.17 146.51 271.53 148.07C271.89 149.63 272.25 152.01 272.25 152.01C272.25 152.01 266.25 159.42 266.99 160.26C267.73 161.1 271.05 162.05 271.05 162.05C271.05 162.05 273.8 173.53 274.88 174.6C275.96 175.67 282.65 173.29 282.65 173.29L289.82 182.37L304.52 168.27L302.73 160.86C302.73 160.86 310.5 147.23 310.38 140.77C310.26 134.31 297 125.71 287.55 125.83C278.1 125.95 269.26 129.42 271.05 131.93C272.104 133.417 273.448 134.675 275 135.63Z"
                    fill="white"
                  />
                </mask>
                <g mask="url(#mask8_2016_6744)">
                  <path
                    d="M305.74 133.3C303.919 133.566 302.14 134.07 300.45 134.8L286.36 140.51C286.36 140.51 279.65 146.21 280.36 150.57C281.07 154.93 287.07 160.97 285.73 165.33C284.39 169.69 276 174.39 276 174.39L278.63 174.49C280.63 174.02 282.69 173.29 282.69 173.29L283.79 174.68L297.37 175.17L304.56 168.27L302.77 160.86C302.77 160.86 310.54 147.23 310.42 140.77C310.34 138.39 308.5 135.72 305.74 133.3Z"
                    fill="#B8B8B8"
                  />
                </g>
                <path
                  d="M275 135.63C275 135.63 271.17 146.51 271.53 148.07C271.89 149.63 272.25 152.01 272.25 152.01C272.25 152.01 266.25 159.42 266.99 160.26C267.73 161.1 271.05 162.05 271.05 162.05C271.05 162.05 273.8 173.53 274.88 174.6C275.96 175.67 282.65 173.29 282.65 173.29L289.82 182.37L304.52 168.27L302.73 160.86C302.73 160.86 310.5 147.23 310.38 140.77C310.26 134.31 297 125.71 287.55 125.83C278.1 125.95 269.26 129.42 271.05 131.93C272.104 133.417 273.448 134.675 275 135.63Z"
                  stroke="#263238"
                  stroke-linecap="round"
                  stroke-linejoin="round"
                />
                <path
                  d="M302.73 160.86C302.73 160.86 310.5 147.23 310.38 140.77C310.26 134.31 297 125.71 287.55 125.83C278.1 125.95 269.26 129.42 271.05 131.93C272.104 133.417 273.448 134.675 275 135.63C275 135.63 280.86 138.38 280.86 139.1C280.86 139.82 277.39 143.64 278.59 145.32C279.79 147 285.52 149.02 285.52 149.02C285.52 149.02 284.52 152.25 286 152.61C287.48 152.97 288.15 151.53 289.1 150.61C290.05 149.69 293.41 148.33 293.89 152.4C294.173 155.319 293.407 158.244 291.73 160.65C291.26 161 297.83 165.43 300.73 164.11C301.48 163.77 302.36 163.32 303.24 162.85L302.73 160.86Z"
                  fill="#263238"
                  stroke="#263238"
                  stroke-linecap="round"
                  stroke-linejoin="round"
                />
                <path
                  d="M274.04 155C274.504 155 274.88 153.554 274.88 151.77C274.88 149.986 274.504 148.54 274.04 148.54C273.576 148.54 273.2 149.986 273.2 151.77C273.2 153.554 273.576 155 274.04 155Z"
                  stroke="#263238"
                  stroke-linecap="round"
                  stroke-linejoin="round"
                />
                <path
                  d="M275 150.46L289.1 150.58"
                  stroke="#263238"
                  stroke-linecap="round"
                  stroke-linejoin="round"
                />
                <path
                  d="M272.68 146.57C272.68 146.57 274.02 144.43 275.36 147.1"
                  stroke="#263238"
                  stroke-linecap="round"
                  stroke-linejoin="round"
                />
                <path
                  d="M272.41 164C273.86 163.409 275.21 162.596 276.41 161.59"
                  stroke="#263238"
                  stroke-linecap="round"
                  stroke-linejoin="round"
                />
                <path
                  d="M53.27 436.3H446.84"
                  stroke="#263238"
                  stroke-width="2"
                  stroke-miterlimit="10"
                />
              </svg>